<?xml version="1.0" standalone="no"?>
<!DOCTYPE svg PUBLIC "-//W3C//DTD SVG 1.1//EN" "http://www.w3.org/Graphics/SVG/1.1/DTD/svg11.dtd" >
<svg xmlns="http://www.w3.org/2000/svg">
<metadata>Generated by IcoMoon</metadata>
<defs>
<font id="icomoon" horiz-adv-x="1024">
<font-face units-per-em="1024" ascent="960" descent="-64" />
<missing-glyph horiz-adv-x="1024" />
<glyph unicode="&#x20;" horiz-adv-x="512" d="" />
<glyph unicode="&#xe900;" glyph-name="add-file" d="M705.396 452.655c81.95-21.776 141.351-95.299 141.351-182.695 0-85.53-56.891-157.772-134.896-180.95l-1.335-0.34c-17.418-5.605-37.457-8.836-58.25-8.836-66.2 0-124.752 32.75-160.336 82.931l-0.41 0.61h-244.829c-0.417-0.009-0.908-0.014-1.4-0.014-37.548 0-68.032 30.245-68.418 67.701v517.39c1.165 37.648 31.964 67.724 69.787 67.724 0.011 0 0.022 0 0.033 0h276.246c4.129-0.053 7.879-1.634 10.72-4.202l-0.014 0.013 166.865-151.505c3.006-2.696 4.889-6.593 4.889-10.93 0-0.085-0.001-0.169-0.002-0.254v0.013zM734.953 287.884c8.483 0 15.36-6.877 15.36-15.36s-6.877-15.36-15.36-15.36v0h-64.233v-71.447c0-8.74-7.085-15.825-15.825-15.825s-15.825 7.085-15.825 15.825v0 71.447h-64.233c-8.483 0-15.36 6.877-15.36 15.36s6.877 15.36 15.36 15.36v0h64.233v62.836c0 8.74 7.085 15.825 15.825 15.825s15.825-7.085 15.825-15.825v0-62.836zM539.927 764.276v-64.465c0.261-20.494 16.935-37.007 37.466-37.007 0.165 0 0.329 0.001 0.493 0.003h73.75zM246.691 194.095h227.375c-10.145 22.248-16.058 48.254-16.058 75.642 0 0.080 0 0.16 0 0.24v-0.012c0.13 56.464 25.063 107.078 64.478 141.543l0.22 0.188c34.322 29.726 79.411 47.839 128.73 47.839 7.943 0 15.777-0.47 23.475-1.383l-0.932 0.090v173.615h-96.116c-0.007 0-0.016 0-0.025 0-37.905 0-68.755 30.206-69.791 67.861l-0.002 0.096v85.411h-261.353c-20.351-0.127-36.846-16.459-37.236-36.734l-0.001-0.037v-517.353c0.387-20.36 16.856-36.748 37.212-37.003h0.024zM651.636 110.545c86.53 1.955 155.927 72.563 155.927 159.38 0 88.044-71.374 159.418-159.418 159.418-88.031 0-159.396-71.352-159.418-159.378v-0.002c1.178-88.298 73.033-159.424 161.499-159.424 0.496 0 0.991 0.002 1.486 0.007l-0.076-0.001z" />
<glyph unicode="&#xe901;" glyph-name="alert" d="M512 585.6c-12.8 0-22.4-9.6-22.4-25.6v-192c0-16 9.6-25.6 22.4-25.6s22.4 9.6 22.4 25.6v192c0 12.8-9.6 25.6-22.4 25.6zM937.6 240v0l-310.4 553.6c-22.4 44.8-67.2 70.4-115.2 70.4s-92.8-28.8-115.2-70.4l-310.4-553.6c-25.6-41.6-25.6-96 0-140.8 22.4-41.6 67.2-67.2 115.2-67.2h620.8c48 0 92.8 25.6 115.2 70.4 25.6 41.6 19.2 96 0 137.6zM908.8 124.8c-12.8-28.8-38.4-44.8-70.4-44.8h-646.4c-28.8 0-57.6 19.2-70.4 44.8-16 25.6-16 60.8 0 89.6l320 569.6c12.8 25.6 38.4 44.8 70.4 41.6 32 0 60.8-16 76.8-44.8l320-569.6c16-25.6 16-60.8 0-86.4zM534.4 265.6c0-12.371-10.029-22.4-22.4-22.4s-22.4 10.029-22.4 22.4c0 12.371 10.029 22.4 22.4 22.4s22.4-10.029 22.4-22.4z" />
<glyph unicode="&#xe902;" glyph-name="arrow-down" d="M805.702 600.436c-3.946 3.886-9.366 6.285-15.346 6.285-0.087 0-0.174-0.001-0.26-0.002h0.013c-0.142 0.003-0.309 0.005-0.476 0.005-5.982 0-11.403-2.401-15.352-6.291l-262.281-262.513-262.516 262.516c-3.805 3.885-9.105 6.293-14.967 6.293-0.22 0-0.439-0.003-0.657-0.010l0.032 0.001c-0.073 0.001-0.16 0.001-0.247 0.001-5.98 0-11.399-2.399-15.348-6.288l0.003 0.003c-3.783-4.125-6.102-9.646-6.102-15.709s2.318-11.584 6.117-15.726l-0.016 0.017 273.222-273.455c4.149-3.887 9.743-6.274 15.896-6.274 1.622 0 3.206 0.166 4.735 0.482l-0.151-0.026c0.699-0.11 1.506-0.172 2.327-0.172s1.628 0.063 2.415 0.183l-0.088-0.011c0.142-0.003 0.309-0.005 0.476-0.005 5.982 0 11.403 2.401 15.352 6.291l273.219 272.986c3.783 4.125 6.102 9.646 6.102 15.709s-2.318 11.584-6.117 15.726l0.016-0.017z" />
<glyph unicode="&#xe903;" glyph-name="arrow-left" d="M664.436 154.298c3.886 3.946 6.285 9.366 6.285 15.346 0 0.087-0.001 0.174-0.002 0.26v-0.013c0.003 0.142 0.005 0.309 0.005 0.476 0 5.982-2.401 11.403-6.291 15.352l-262.513 262.281 262.516 262.516c3.885 3.805 6.293 9.105 6.293 14.967 0 0.22-0.003 0.439-0.010 0.657l0.001-0.032c0.001 0.073 0.001 0.16 0.001 0.247 0 5.98-2.399 11.399-6.288 15.348l0.003-0.003c-4.125 3.783-9.646 6.102-15.709 6.102s-11.584-2.318-15.726-6.117l0.017 0.016-273.455-273.222c-3.887-4.149-6.274-9.743-6.274-15.896 0-1.622 0.166-3.206 0.482-4.735l-0.026 0.151c-0.11-0.699-0.172-1.506-0.172-2.327s0.063-1.628 0.183-2.415l-0.011 0.088c-0.003-0.142-0.005-0.309-0.005-0.476 0-5.982 2.401-11.403 6.291-15.352l272.986-273.219c4.125-3.783 9.646-6.102 15.709-6.102s11.584 2.318 15.726 6.117l-0.017-0.016z" />
<glyph unicode="&#xe904;" glyph-name="arrow-right" d="M359.564 741.702c-3.886-3.946-6.285-9.366-6.285-15.346 0-0.087 0.001-0.174 0.002-0.26v0.013c-0.003-0.142-0.005-0.309-0.005-0.476 0-5.982 2.401-11.403 6.291-15.352l262.513-262.281-262.516-262.516c-3.885-3.805-6.293-9.105-6.293-14.967 0-0.22 0.003-0.439 0.010-0.657l-0.001 0.032c-0.001-0.073-0.001-0.16-0.001-0.247 0-5.98 2.399-11.399 6.288-15.348l-0.003 0.003c4.125-3.783 9.646-6.102 15.709-6.102s11.584 2.318 15.726 6.117l-0.017-0.016 273.455 273.222c3.887 4.149 6.274 9.743 6.274 15.896 0 1.622-0.166 3.206-0.482 4.735l0.026-0.151c0.11 0.699 0.172 1.506 0.172 2.327s-0.063 1.628-0.183 2.415l0.011-0.088c0.003 0.142 0.005 0.309 0.005 0.476 0 5.982-2.401 11.403-6.291 15.352l-272.986 273.219c-4.125 3.783-9.646 6.102-15.709 6.102s-11.584-2.318-15.726-6.117l0.017 0.016z" />
<glyph unicode="&#xe905;" glyph-name="arrow-top" d="M218.298 295.564c3.946-3.886 9.366-6.285 15.346-6.285 0.087 0 0.174 0.001 0.26 0.002h-0.013c0.142-0.003 0.309-0.005 0.476-0.005 5.982 0 11.403 2.401 15.352 6.291l262.281 262.513 262.516-262.516c3.805-3.885 9.105-6.293 14.967-6.293 0.22 0 0.439 0.003 0.657 0.010l-0.032-0.001c0.073-0.001 0.16-0.001 0.247-0.001 5.98 0 11.399 2.399 15.348 6.288l-0.003-0.003c3.783 4.125 6.102 9.646 6.102 15.709s-2.318 11.584-6.117 15.726l0.016-0.017-273.222 273.455c-4.149 3.887-9.743 6.274-15.896 6.274-1.622 0-3.206-0.166-4.735-0.482l0.151 0.026c-0.699 0.11-1.506 0.172-2.327 0.172s-1.628-0.063-2.415-0.183l0.088 0.011c-0.142 0.003-0.309 0.005-0.476 0.005-5.982 0-11.403-2.401-15.352-6.291l-273.219-272.986c-3.783-4.125-6.102-9.646-6.102-15.709s2.318-11.584 6.117-15.726l-0.016 0.017z" />
<glyph unicode="&#xe906;" glyph-name="ask" d="M512 798.953c-193.826 0-350.953-157.127-350.953-350.953s157.127-350.953 350.953-350.953c193.826 0 350.953 157.127 350.953 350.953v0c-0.265 193.719-157.233 350.688-350.927 350.953h-0.026zM512 131.724c-174.675 0-316.276 141.602-316.276 316.276s141.602 316.276 316.276 316.276c174.675 0 316.276-141.602 316.276-316.276v0c-0.132-174.621-141.655-316.144-316.264-316.276h-0.013zM520.844 301.847c-10.411 0-18.851-8.44-18.851-18.851v0-24.669c0-10.411 8.44-18.851 18.851-18.851s18.851 8.44 18.851 18.851v24.669c0 10.411-8.44 18.851-18.851 18.851v0zM522.24 647.68h-1.396c-0.069 0-0.151 0-0.233 0-57.968 0-104.96-46.992-104.96-104.96 0-0.082 0-0.164 0-0.246v0.013c-0.074-0.628-0.116-1.354-0.116-2.091 0-10.411 8.44-18.851 18.851-18.851s18.851 8.44 18.851 18.851c0 0.737-0.042 1.464-0.125 2.179l0.008-0.087c-0.001 0.14-0.002 0.306-0.002 0.472 0 37.205 29.898 67.426 66.978 67.949l0.049 0.001h1.629c36.233-1.587 65.206-30.56 66.788-66.646l0.005-0.147c0.024-0.668 0.037-1.452 0.037-2.24 0-23.396-11.824-44.031-29.821-56.256l-0.237-0.152c-33.596-22.6-55.405-60.477-55.405-103.447 0-0.696 0.006-1.39 0.017-2.083l-0.001 0.104v-35.142c0-10.411 8.44-18.851 18.851-18.851s18.851 8.44 18.851 18.851v0 35.142c-0.006 0.369-0.009 0.805-0.009 1.241 0 30.047 14.985 56.594 37.889 72.576l0.287 0.19c29.165 18.863 48.194 51.225 48.194 88.031 0 0.715-0.007 1.429-0.022 2.141l0.002-0.106c-1.169 57.209-47.633 103.184-104.923 103.563h-0.037z" />
<glyph unicode="&#xe907;" glyph-name="attach" d="M818.502 715.171v0c-33.641 33.39-79.982 54.025-131.142 54.025s-97.501-20.635-131.153-54.036l-367-367c-20.699-22.914-33.364-53.43-33.364-86.904 0-71.721 58.141-129.862 129.862-129.862 33.358 0 63.779 12.578 86.778 33.249l-0.119-0.105 367.476 367.011c12.678 13.294 20.48 31.336 20.48 51.2 0 41.002-33.238 74.24-74.24 74.24-19.864 0-37.906-7.802-51.229-20.508l0.029 0.028-314.647-314.647c-3.36-3.368-5.437-8.016-5.437-13.149s2.077-9.781 5.438-13.149v0c3.33-3.346 7.94-5.417 13.033-5.417s9.702 2.071 13.032 5.417l0.001 0.001 314.88 315.345c6.617 6.88 15.9 11.154 26.182 11.154s19.565-4.274 26.171-11.142l0.011-0.012c6.763-6.672 10.952-15.938 10.952-26.182s-4.189-19.51-10.948-26.178l-0.004-0.004-367.011-367.709c-15.942-13.178-36.591-21.172-59.106-21.172-51.413 0-93.091 41.678-93.091 93.091 0 22.516 7.994 43.165 21.298 59.263l-0.126-0.157 366.313 367.011c26.286 24.152 61.496 38.957 100.164 38.957 81.875 0 148.247-66.373 148.247-148.247 0-38.668-14.804-73.877-39.054-100.271l0.097 0.107-313.716-314.88c-3.36-3.368-5.437-8.016-5.437-13.149s2.077-9.781 5.438-13.149v0c3.33-3.346 7.94-5.417 13.033-5.417s9.702 2.071 13.032 5.417l314.881 314.648c33.39 33.641 54.025 79.982 54.025 131.142s-20.635 97.501-54.036 131.153l0.011-0.011z" />
<glyph unicode="&#xe908;" glyph-name="bag" d="M857.6 659.2h-153.6v41.6c0 108.8-86.4 195.2-195.2 195.2s-195.2-86.4-195.2-195.2v-41.6h-147.2c-38.4 0-70.4-32-70.4-70.4v-521.6c0-35.2 32-67.2 70.4-67.2h694.4c38.4 0 70.4 32 70.4 70.4v518.4c-3.2 38.4-35.2 70.4-73.6 70.4zM332.8 483.2c9.6 0 19.2 9.6 19.2 19.2v118.4h313.6v-118.4c0-9.6 9.6-19.2 19.2-19.2s19.2 9.6 19.2 19.2v118.4h153.6c16 0 32-12.8 32-32v-521.6c0-16-12.8-32-32-32h-691.2c-16 0-32 12.8-32 32v521.6c0 16 12.8 32 32 32h147.2v-118.4c0-12.8 9.6-19.2 19.2-19.2zM352 659.2v41.6c0 86.4 70.4 156.8 156.8 156.8s156.8-70.4 156.8-156.8v-41.6h-313.6z" />
<glyph unicode="&#xe909;" glyph-name="book" d="M316.8 256h64v64h-64v-64zM444.8 256h320v64h-320v-64zM316.8 416h64v64h-64v-64zM444.8 416h320v64h-320v-64zM316.8 576h64v64h-64v-64zM444.8 576h320v64h-320v-64zM201.6 41.6v812.8h684.8v-812.8h-684.8zM160 896v-160h-64v-128h64v-96h-64v-128h64v-96h-64v-128h64v-160h768v896h-768z" />
<glyph unicode="&#xe90a;" glyph-name="box" d="M320 384h384v64h-384v-64zM169.6 105.6v438.4h684.8v-438.4h-684.8zM105.6 790.4h812.8v-204.8h-812.8v204.8zM64 832v-288h64v-480h768v480h64v288h-896z" />
<glyph unicode="&#xe90b;" glyph-name="card" d="M646.4 323.2h188.8c19.2 0 32 12.8 32 32s-12.8 32-32 32h-188.8c-19.2 0-32-12.8-32-32s12.8-32 32-32zM876.8 768h-729.6c0 0 0 0 0 0-48 0-83.2-38.4-83.2-86.4v-473.6c0-41.6 38.4-80 83.2-80h729.6c44.8 0 83.2 38.4 83.2 83.2v470.4c0 0 0 0 0 0 0 48-38.4 86.4-83.2 86.4zM918.4 211.2c0-22.4-19.2-41.6-41.6-41.6 0 0 0 0 0 0h-729.6c-22.4 0-41.6 19.2-41.6 41.6v0 243.2h812.8v-243.2zM918.4 681.6v-70.4h-812.8v70.4c0 22.4 19.2 41.6 41.6 41.6 0 0 0 0 0 0h729.6c22.4 3.2 41.6-16 41.6-41.6 0 3.2 0 3.2 0 0z" />
<glyph unicode="&#xe90c;" glyph-name="cash" d="M816.175 288.815v377.949c0.005 0.141 0.007 0.306 0.007 0.473 0 8.483-6.877 15.36-15.36 15.36-0.166 0-0.332-0.003-0.497-0.008l0.024 0.001h-637.44c-0.144 0.005-0.312 0.008-0.482 0.008-8.355 0-15.127-6.773-15.127-15.127 0-0.248 0.006-0.495 0.018-0.74l-0.001 0.035v-377.949c-0.005-0.141-0.007-0.307-0.007-0.473 0-8.355 6.773-15.127 15.127-15.127 0.166 0 0.332 0.003 0.497 0.008l-0.024-0.001h637.44c0.211-0.010 0.458-0.016 0.706-0.016 8.355 0 15.127 6.773 15.127 15.127 0 0.169-0.003 0.338-0.008 0.506l0.001-0.024zM784.756 304.64h-605.091v346.298h605.091zM482.211 342.807c74.677 0 135.214 60.538 135.214 135.215s-60.538 135.215-135.215 135.215c-74.677 0-135.215-60.538-135.215-135.215 0-0.082 0-0.164 0-0.245v0.013c0 0 0 0 0 0 0-74.548 60.433-134.982 134.982-134.982 0.082 0 0.164 0 0.245 0h-0.013zM482.211 581.353c57.197 0 103.564-46.367 103.564-103.564s-46.367-103.564-103.564-103.564c-57.197 0-103.564 46.367-103.564 103.564v0c0 57.197 46.367 103.564 103.564 103.564v0zM861.091 622.778c-0.211 0.010-0.458 0.016-0.706 0.016-8.355 0-15.127-6.773-15.127-15.127 0-0.169 0.003-0.338 0.008-0.506l-0.001 0.024v-362.124h-621.615c-8.74 0-15.825-7.085-15.825-15.825s7.085-15.825 15.825-15.825h637.44c0.144-0.005 0.312-0.008 0.482-0.008 8.355 0 15.127 6.773 15.127 15.127 0 0.248-0.006 0.495-0.018 0.74l0.001-0.035v377.949c0.005 0.141 0.007 0.307 0.007 0.473 0 8.355-6.773 15.127-15.127 15.127-0.166 0-0.332-0.003-0.497-0.008l0.024 0.001z" />
<glyph unicode="&#xe90d;" glyph-name="check" d="M865.513 694.225c-4.194 4.114-9.946 6.653-16.291 6.653s-12.096-2.539-16.295-6.656l-443.574-443.574-198.284 197.353c-4.194 4.114-9.946 6.653-16.291 6.653s-12.096-2.539-16.295-6.656l0.004 0.004c-4.114-4.194-6.653-9.946-6.653-16.291s2.539-12.096 6.656-16.295l-0.004 0.004 213.876-213.644c4.182-4.149 9.933-6.721 16.286-6.749h0.005c6.358 0.028 12.109 2.6 16.292 6.751l-0.002-0.002 460.567 459.869c4.114 4.194 6.653 9.946 6.653 16.291s-2.539 12.096-6.656 16.295l0.004-0.004z" />
<glyph unicode="&#xe90e;" glyph-name="close" d="M542.953 448l249.949 250.182c3.931 3.931 6.362 9.362 6.362 15.36 0 11.997-9.725 21.722-21.722 21.722-5.998 0-11.429-2.431-15.36-6.362l-250.182-249.949-250.182 249.949c-3.931 3.931-9.362 6.362-15.36 6.362-11.997 0-21.722-9.725-21.722-21.722 0-5.998 2.431-11.429 6.362-15.36l249.949-250.182-249.949-250.182c-4.008-3.895-6.495-9.337-6.495-15.36s2.487-11.465 6.489-15.355l0.005-0.005c3.895-4.008 9.337-6.495 15.36-6.495s11.465 2.487 15.355 6.489l250.187 249.954 250.182-249.949c3.895-4.008 9.337-6.495 15.36-6.495s11.465 2.487 15.355 6.489l0.005 0.005c4.008 3.895 6.495 9.337 6.495 15.36s-2.487 11.465-6.489 15.355l-0.005 0.005z" />
<glyph unicode="&#xe90f;" glyph-name="cream" d="M666.531 481.047c0 0.017 0 0.038 0 0.059 0 32.458-22.833 59.582-53.314 66.187l-0.446 0.081v80.989c0 0.056 0.001 0.122 0.001 0.188 0 8.109-3.291 15.449-8.611 20.757l-0.001 0.001c-5.038 4.896-11.761 8.082-19.219 8.605l-0.097 0.005v46.080h9.775c0.011 0 0.025 0 0.038 0 8.229 0 15.691 3.286 21.146 8.616l-0.006-0.006c5.322 5.344 8.613 12.715 8.613 20.855 0 0.114-0.001 0.227-0.002 0.34v-0.017 51.433c0.001 0.075 0.001 0.165 0.001 0.254 0 8.131-3.39 15.471-8.834 20.682l-0.010 0.010c-5.335 5.428-12.742 8.804-20.938 8.844h-126.379c0 0-0.001 0-0.001 0-16.113 0-29.191-12.996-29.323-29.078v-128.477h-1.862c-16.452 0-29.789-13.337-29.789-29.789v0-81.92c-29.046-7.964-50.037-34.128-50.037-65.195 0-0.071 0-0.142 0-0.213v0.011-331.636c0-37.403 30.321-67.724 67.724-67.724h173.847c0.069 0 0.151 0 0.233 0 37.274 0 67.491 30.217 67.491 67.491 0 0.082 0 0.164 0 0.246v-0.013zM591.127 781.964v-44.684h-23.273c-9.126 0-16.524-7.398-16.524-16.524v0-63.302h-79.36v124.509zM579.491 625.105v-76.335h-139.636v76.102zM631.156 136.378v0c-2.010-4.311-4.585-8.003-7.687-11.179l0.007 0.008c-3.094-3.020-6.712-5.521-10.702-7.35l-0.236-0.097c-3.636-1.623-7.879-2.568-12.343-2.568-0.242 0-0.484 0.003-0.725 0.008l0.036-0.001h-174.313c-19.151 0-34.676 15.525-34.676 34.676v0 330.938c0 19.151 15.525 34.676 34.676 34.676v0h173.847c0.069 0.001 0.151 0.001 0.234 0.001 19.023 0 34.444-15.421 34.444-34.444 0-0.082 0-0.164-0.001-0.246v0.013-331.869c0-0.014 0-0.031 0-0.048 0-4.683-0.941-9.146-2.644-13.211l0.084 0.226z" />
<glyph unicode="&#xe910;" glyph-name="delete" d="M513.6 520.32c-8.96 0-19.52-6.080-19.52-23.36v-348.8c-0.008-0.21-0.013-0.457-0.013-0.705 0-10.222 7.857-18.609 17.861-19.451l0.071-0.005c0.019 0 0.042 0 0.065 0 10.957 0 19.84 8.883 19.84 19.84 0 0.563-0.023 1.121-0.069 1.672l0.005-0.072v347.84c0.138 0.887 0.217 1.91 0.217 2.952 0 10.535-8.080 19.182-18.381 20.083l-0.076 0.005zM366.080 520.32c-9.452-0.026-17.296-6.878-18.863-15.885l-0.017-0.115c-0.227-1.010-0.357-2.17-0.357-3.36s0.13-2.35 0.376-3.466l-0.020 0.106v-348.16c-0.033-0.441-0.052-0.956-0.052-1.475 0-2.935 0.608-5.727 1.704-8.259l-0.052 0.135c2.003-6.116 6.878-10.779 12.988-12.449l0.132-0.031h3.52c5.725 0.098 10.957 2.133 15.086 5.476l-0.046-0.036c3.788 3.816 6.129 9.073 6.129 14.877 0 0.508-0.018 1.011-0.053 1.51l0.004-0.067v352c0.216 0.719 0.34 1.545 0.34 2.4s-0.124 1.681-0.356 2.461l0.016-0.061c-2.176 8.393-9.682 14.491-18.614 14.491-0.657 0-1.307-0.033-1.947-0.098l0.081 0.007zM679.36 503.040c0 10.781-8.739 19.52-19.52 19.52s-19.52-8.739-19.52-19.52v0-352c-0.145-1.105-0.228-2.383-0.228-3.68s0.083-2.575 0.244-3.828l-0.016 0.148c1.29-8.56 8.594-15.047 17.414-15.047 0.178 0 0.355 0.003 0.532 0.008l-0.026-0.001c1.058-0.218 2.275-0.343 3.52-0.343s2.462 0.125 3.637 0.363l-0.117-0.020c8.114 2.612 13.882 10.095 13.882 18.924 0 0.774-0.044 1.537-0.13 2.287l0.009-0.092v348.8c0.207 1.192 0.325 2.565 0.325 3.965 0 0.181-0.002 0.361-0.006 0.541v-0.027zM804.8 783.040h-162.24c-3.76 29.209-17.125 54.762-36.773 73.893l-0.027 0.027c-22.406 22.762-53.030 37.377-87.058 39.028l-0.302 0.012c-3.063 0.261-6.628 0.409-10.229 0.409-28.825 0-55.424-9.528-76.821-25.606l0.329 0.237c-28.717-20.143-48.61-51.188-53.681-87l-0.079-0.68h-160c-0.968 0.061-2.098 0.096-3.237 0.096-30.221 0-54.72-24.499-54.72-54.72 0-0.709 0.013-1.415 0.040-2.117l-0.003 0.101v-54.72c1.033-26.248 20.297-47.706 45.43-52.112l0.33-0.048h2.88v-552.96c0.785-27.453 17.314-50.862 40.843-61.582l0.437-0.178c9.56-4.474 20.759-7.084 32.567-7.084 0.926 0 1.848 0.016 2.766 0.048l-0.133-0.004h456.32c16.376 0.189 31.461 5.561 43.732 14.548l-0.212-0.148c17.746 12.679 29.176 33.21 29.176 56.41 0 0.981-0.020 1.958-0.061 2.929l0.005-0.139v547.52c28.041 2.207 49.96 25.505 49.96 53.923 0 0.73-0.014 1.458-0.043 2.181l0.003-0.104v51.2c0.018 0.524 0.028 1.141 0.028 1.76 0 30.398-24.642 55.040-55.040 55.040-1.474 0-2.934-0.058-4.379-0.172l0.191 0.012zM772.8 71.68v0c0.154-1.344 0.242-2.902 0.242-4.48s-0.088-3.136-0.259-4.668l0.017 0.188c-3.286-14.45-16.023-25.072-31.241-25.072-0.943 0-1.876 0.041-2.799 0.121l0.12-0.008h-456.64c-0.167-0.003-0.363-0.005-0.56-0.005-16.011 0-29.432 11.094-32.994 26.014l-0.047 0.231c-0.079 1.244-0.125 2.696-0.125 4.16s0.045 2.916 0.134 4.357l-0.010-0.197v545.92h525.12v-546.56zM200.32 727.040c0 11.2 5.76 16.64 17.6 16.64h587.2c0.718 0.121 1.545 0.191 2.389 0.191 8.306 0 15.040-6.734 15.040-15.040 0-0.745-0.054-1.477-0.159-2.192l0.010 0.081v-52.48c0.021-0.304 0.034-0.659 0.034-1.016 0-8.483-6.877-15.36-15.36-15.36-0.462 0-0.92 0.020-1.372 0.060l0.058-0.004h-586.88c-13.12 0-18.56 5.12-18.56 17.92zM417.92 783.36c4.61 25.748 20.132 47.158 41.511 59.62l0.409 0.22c14.174 9.339 31.558 14.898 50.24 14.898s36.066-5.559 50.587-15.113l-0.347 0.215c21.956-12.717 37.602-34.252 42.162-59.635l0.078-0.525z" />
<glyph unicode="&#xe911;" glyph-name="download" d="M841.775 292.771c0 0-0.001 0-0.001 0-10.715 0-19.416-8.62-19.548-19.304v-135.692h-620.451v135.68c-0.131 10.696-8.833 19.316-19.548 19.316 0 0-0.001 0-0.001 0v0c-10.668 0-19.316-8.648-19.316-19.316v0-155.229c0-10.668 8.648-19.316 19.316-19.316v0h659.549c10.668 0 19.316 8.648 19.316 19.316v0 155.229c0 10.668-8.648 19.316-19.316 19.316v0zM499.2 297.658c3.426-2.922 7.905-4.699 12.8-4.699s9.374 1.778 12.828 4.722l-0.028-0.023 174.545 155.229c4.461 3.569 7.293 9.013 7.293 15.119 0 4.602-1.61 8.829-4.296 12.147l0.028-0.036c-3.613 4.474-9.098 7.312-15.246 7.312-4.64 0-8.902-1.616-12.254-4.316l0.038 0.029s0 0-1.164-1.164l-142.429-127.069v422.865c0 10.668-8.648 19.316-19.316 19.316s-19.316-8.648-19.316-19.316v0-422.865l-142.429 126.604c-2.585 1.37-5.651 2.175-8.904 2.175-10.668 0-19.316-8.648-19.316-19.316 0-4.324 1.421-8.316 3.821-11.535l-0.036 0.051z" />
<glyph unicode="&#xe912;" glyph-name="eye-press" d="M905.542 450.095c-48.804 69.888-113.723 125.331-189.547 161.65l-2.919 1.259 119.156 119.389c2.978 2.978 4.82 7.092 4.82 11.636 0 9.089-7.368 16.456-16.456 16.456-4.544 0-8.658-1.842-11.636-4.82l-128.233-128.233c-50.015 20.029-107.983 31.718-168.66 31.883h-0.067c-162.96-0.886-306.558-82.978-392.49-207.837l-1.052-1.617-6.284-9.076 6.284-9.309c50.223-72.402 117.718-129.517 196.672-166.081l3.008-1.25-101.702-101.469c-3.14-2.901-5.1-7.040-5.1-11.636s1.96-8.735 5.089-11.627l0.011-0.010c2.868-3.206 7.018-5.214 11.636-5.214s8.768 2.008 11.623 5.199l0.013 0.015 111.476 111.244c47.483-17.837 102.361-28.161 159.65-28.161 0.409 0 0.819 0.001 1.228 0.002h-0.064c162.96 0.886 306.558 82.978 392.49 207.837l1.052 1.617 6.284 9.309zM151.273 441.018c81.641 112.766 212.62 185.466 360.614 186.181h0.113c51.644-0.057 101.159-9.090 147.096-25.624l-3.037 0.955-63.767-63.767c-21.525 18.274-49.593 29.429-80.264 29.556h-0.027c-0.109 0-0.237 0.001-0.366 0.001-70.050 0-126.836-56.787-126.836-126.836 0-30.886 11.040-59.194 29.389-81.193l-0.165 0.203-71.447-71.447c-78.108 33.391-142.776 85.425-190.407 150.685l-0.895 1.286zM607.185 441.018c0-52.569-42.616-95.185-95.185-95.185v0c-0.131-0.001-0.286-0.001-0.441-0.001-19.071 0-36.803 5.735-51.565 15.575l0.34-0.213 131.258 131.491c9.769-14.497 15.593-32.356 15.593-51.575 0-0.032 0-0.064 0-0.096v0.005zM416.815 441.018c0.132 52.469 42.698 94.953 95.185 94.953 0 0 0 0 0 0v0c0.014 0 0.030 0 0.047 0 21.867 0 41.973-7.54 57.861-20.161l-0.191 0.147-132.887-132.655c-12.475 15.696-20.015 35.802-20.015 57.669 0 0.017 0 0.033 0 0.050v-0.003zM512 254.836c-48.79 0.112-95.674 8.109-139.498 22.782l3.12-0.906 61.673 61.905c20.79-15.555 47.006-24.907 75.407-24.907 69.921 0 126.604 56.682 126.604 126.604 0 0.329-0.001 0.658-0.004 0.986v-0.051c-0.053 28.054-9.307 53.936-24.904 74.801l0.235-0.329 74.24 74.24c74.868-33.613 136.87-84.341 182.961-147.429l0.894-1.283c-81.555-112.946-212.544-185.816-360.596-186.647l-0.132-0.001z" />
<glyph unicode="&#xe913;" glyph-name="eye" d="M925.789 457.542c-90.852 133.667-242.201 220.32-413.789 220.32s-322.937-86.652-412.676-218.585l-1.114-1.735-6.749-9.542 6.749-9.542c91.403-133.074 242.409-219.463 413.646-220.392l0.143-0.001c171.381 0.93 322.386 87.319 412.681 218.687l1.108 1.705 6.749 9.542zM512 252.044c-155.76 0.873-293.473 77.361-378.402 194.589l-0.943 1.367c85.419 119.080 223.43 195.742 379.345 195.742s293.926-76.662 378.394-194.347l0.952-1.394c-85.873-118.596-223.586-195.084-379.208-195.956l-0.137-0.001zM512 581.818c-73.906 0-133.818-59.912-133.818-133.818s59.912-133.818 133.818-133.818c73.906 0 133.818 59.912 133.818 133.818v0c-0.132 73.853-59.966 133.686-133.805 133.818h-0.013zM512 347.927c-55.269 0-100.073 44.804-100.073 100.073s44.804 100.073 100.073 100.073c55.269 0 100.073-44.804 100.073-100.073v0c-0.132-55.215-44.857-99.941-100.060-100.073h-0.013z" />
<glyph unicode="&#xe914;" glyph-name="fill-facebook" d="M512 896c-246.4 0-448-201.6-448-448s201.6-448 448-448c246.4 0 448 201.6 448 448s-201.6 448-448 448zM512 38.4c-227.2 0-409.6 182.4-409.6 409.6s182.4 412.8 409.6 412.8c227.2 0 412.8-185.6 412.8-412.8s-185.6-409.6-412.8-409.6zM630.4 448c-25.6 0-51.2 0-76.8 0 0-89.6 0-179.2 0-265.6-38.4 0-73.6 0-108.8 0 0 89.6 0 176 0 265.6-19.2 0-38.4 0-57.6 0 0 32 0 60.8 0 92.8 19.2 0 38.4 0 57.6 0 0 22.4 0 44.8 0 67.2 0 28.8 9.6 51.2 25.6 73.6 12.8 16 28.8 22.4 48 25.6 38.4 9.6 80 3.2 118.4 6.4 0-32 0-60.8 0-92.8-16 0-35.2 0-51.2 0-9.6 0-22.4 0-25.6-12.8-3.2-3.2-3.2-9.6-3.2-12.8 0-19.2 0-38.4 0-57.6 22.4 0 44.8 0 67.2 0 19.2 0 19.2 0 16-19.2-6.4-22.4-9.6-44.8-9.6-70.4z" />
<glyph unicode="&#xe915;" glyph-name="fill-instagram" d="M512 896c-246.4 0-448-201.6-448-448s201.6-448 448-448c246.4 0 448 201.6 448 448s-201.6 448-448 448zM512 35.2c-227.2 0-412.8 185.6-412.8 412.8s185.6 412.8 412.8 412.8 412.8-185.6 412.8-412.8c0-227.2-185.6-412.8-412.8-412.8zM608 659.2h-192c-64 0-115.2-51.2-115.2-115.2v-192c0-64 51.2-115.2 115.2-115.2h192c64 0 115.2 51.2 115.2 115.2v192c0 64-51.2 115.2-115.2 115.2zM512 320c-70.4 0-128 57.6-128 128s57.6 128 128 128c70.4 0 128-57.6 128-128s-57.6-128-128-128zM576 448c0-35.346-28.654-64-64-64s-64 28.654-64 64c0 35.346 28.654 64 64 64s64-28.654 64-64z" />
<glyph unicode="&#xe916;" glyph-name="fill-star" d="M874.821 521.4l-206.816-163.584 75.882-260.193c1.639-5.569-0.368-11.623-4.913-15.038-2.283-1.731-4.968-2.562-7.673-2.562-2.697 0-5.336 0.815-7.619 2.542l-211.673 156.099-211.71-156.099c-4.6-3.387-10.727-3.357-15.272 0.029-4.583 3.415-6.561 9.469-4.913 15.038l75.863 260.193-206.788 163.584c-4.471 3.525-6.285 9.584-4.537 15.104 1.731 5.511 6.679 9.275 12.252 9.367l258.593 4.537 84.033 257.249c3.625 11.102 21.289 11.102 24.895 0l84.067-257.249 258.582-4.537c5.595-0.078 10.504-3.847 12.273-9.367 1.731-5.549-0.075-11.603-4.537-15.104z" />
<glyph unicode="&#xe917;" glyph-name="fill-twitter" d="M177.56 235.179c9.084-1.046 19.618-1.638 30.29-1.638 64.903 0 124.663 22.006 172.223 58.969l-0.638-0.475c-59.178 2.017-108.782 40.829-126.797 94.184l-0.283 0.98c6.271-0.978 13.501-1.532 20.864-1.532 13.57 0 26.698 1.887 39.129 5.424l-1.011-0.243c-31.677 7.439-58.476 24.845-77.624 48.677l-0.21 0.272c-18.934 23.132-30.414 53.011-30.414 85.574 0 0.484 0.002 0.968 0.006 1.459v-0.073c10.337-3.649 19.759-8.212 30.401-10.946 8.846-2.379 19.232-4.103 29.885-4.838l0.516-0.030c-27.865 20.468-47.925 50.139-55.759 84.463l-0.182 0.966c-2.158 9.131-3.402 19.61-3.402 30.382 0 25.436 6.912 49.252 18.955 69.683l-0.348-0.643c68.459-83.093 169.114-137.524 282.605-144.059l1.057-0.045c0 3.953 0 7.602 0 10.946-1.089 6.489-1.71 13.973-1.71 21.593 0 75.728 61.392 137.12 137.12 137.12 26 0 50.314-7.236 71.028-19.811l-0.61 0.343c10.379-6.85 19.411-13.849 27.874-21.465l-0.208 0.182c1.4-1.287 3.276-2.074 5.332-2.074 0.694 0 1.371 0.093 2.016 0.263l-0.058-0.009c29.415 6.664 55.406 17.151 79.111 31.102l-1.285-0.694h3.039c-5.024-15.997-12.61-29.868-22.376-41.884l0.179 0.232c-9.927-12.305-21.349-22.854-34.116-31.577l-0.543-0.348c27.686 3.008 52.984 10.209 76.299 20.999l-1.505-0.622c-4.868-6.688-9.423-13.376-14.9-19.759-14.423-17.622-30.496-33.017-48.237-46.314l-0.712-0.51c-2.072-1.507-3.402-3.925-3.402-6.652 0-0.336 0.023-0.66 0.061-0.988l-0.003 0.038c0.11-3.526 0.175-7.68 0.175-11.845 0-75.922-21.211-146.884-58.025-207.294l0.994 1.762c-57.847-99.903-158.235-169.657-275.736-184.663l-1.848-0.196c-16.778-2.523-36.133-3.962-55.834-3.962-10.952 0-21.801 0.445-32.533 1.322l1.407-0.095c-45.917 3.013-88.551 13.911-127.628 31.345l2.36-0.945c-17.939 8.212-34.659 18.244-52.293 27.361l-2.735 0.609z" />
<glyph unicode="&#xe918;" glyph-name="fill-wishlist" d="M937.6 681.6c-25.6 54.4-67.2 96-121.6 124.8-57.6 25.6-118.4 32-176 16s-96-54.4-128-92.8c0 0 0 0 0 0v0c0 0 0 0-3.2 3.2s-6.4 6.4-9.6 12.8-16 19.2-25.6 25.6c-57.6 48-121.6 67.2-198.4 57.6-35.2-6.4-67.2-22.4-105.6-48-112-76.8-124.8-204.8-86.4-294.4 12.8-28.8 28.8-57.6 51.2-86.4 38.4-54.4 86.4-105.6 147.2-166.4 54.4-54.4 108.8-108.8 163.2-163.2l9.6-9.6c6.4-6.4 12.8-12.8 22.4-19.2s22.4-9.6 35.2-9.6v0c0 0 3.2 0 3.2 0 19.2 0 38.4 9.6 54.4 25.6 76.8 73.6 160 153.6 236.8 240 35.2 41.6 73.6 83.2 105.6 134.4 28.8 44.8 44.8 96 44.8 150.4 3.2 35.2-3.2 67.2-19.2 99.2zM368 659.2c-3.2-3.2-6.4-6.4-12.8-6.4-3.2 0-6.4 0-9.6 3.2-12.8 6.4-25.6 6.4-41.6 6.4-38.4-3.2-73.6-35.2-80-73.6-3.2-22.4 3.2-41.6 12.8-60.8 6.4-12.8 3.2-19.2 0-22.4s-9.6-6.4-16-6.4v0c-6.4 0-12.8 6.4-16 9.6-12.8 19.2-19.2 41.6-19.2 67.2 0 73.6 60.8 131.2 134.4 124.8 9.6 0 19.2-3.2 28.8-6.4 3.2 0 6.4-3.2 9.6-3.2 9.6-3.2 12.8-9.6 12.8-19.2 3.2-3.2 0-9.6-3.2-12.8z" />
<glyph unicode="&#xe919;" glyph-name="fill-youtube" d="M512 896c-246.4 0-448-201.6-448-448s201.6-448 448-448c246.4 0 448 201.6 448 448s-201.6 448-448 448zM512 35.2c-227.2 0-409.6 185.6-409.6 412.8s182.4 412.8 409.6 412.8c227.2 0 412.8-185.6 412.8-412.8s-185.6-412.8-412.8-412.8zM729.6 560c-6.4 19.2-19.2 35.2-41.6 41.6-32 6.4-176 6.4-176 6.4s-144 0-179.2-9.6c-19.2-6.4-35.2-22.4-41.6-41.6-6.4-35.2-6.4-108.8-6.4-108.8s0-73.6 9.6-112c6.4-19.2 19.2-35.2 41.6-41.6 32-6.4 176-6.4 176-6.4s144 0 179.2 9.6c19.2 6.4 35.2 22.4 41.6 41.6 9.6 35.2 9.6 112 9.6 112s-3.2 70.4-12.8 108.8zM464 380.8v134.4l118.4-67.2-118.4-67.2z" />
<glyph unicode="&#xe91a;" glyph-name="fragance" d="M606.487 568.785v60.276h12.335c9.768 0 17.687 7.919 17.687 17.687v0 131.491c0 9.768-7.919 17.687-17.687 17.687v0h-213.644c-9.768 0-17.687-7.919-17.687-17.687v0-131.491c0-9.768 7.919-17.687 17.687-17.687v0h12.335v-60.276c-107.624-41.294-182.759-143.517-183.389-263.369v-0.078c-0.001-0.27-0.002-0.59-0.002-0.91 0-78.064 32.462-148.545 84.623-198.683l0.091-0.087c3.273-3.447 7.889-5.592 13.006-5.592 0.173 0 0.346 0.002 0.518 0.007l-0.025-0.001h359.796c0.053-0.001 0.115-0.001 0.177-0.001 4.648 0 8.859 1.866 11.927 4.89l-0.002-0.002c52.804 50.259 85.645 121.074 85.645 199.559 0 0.288 0 0.576-0.001 0.863v-0.044c-0.631 119.931-75.766 222.154-181.453 262.793l-1.936 0.654zM601.135 664.436h-178.269v96.116h178.269zM571.113 624.873v-51.2h-118.225v51.2zM754.269 305.338c0-0.118 0-0.259 0-0.399 0-66.12-26.667-126.012-69.833-169.507l0.015 0.015h-345.367c-43.151 43.48-69.819 103.372-69.819 169.492 0 0.14 0 0.28 0 0.42v-0.022c0 0.036 0 0.078 0 0.12 0 31.851 6.065 62.286 17.103 90.212l-0.579-1.663h451.956c10.452-26.301 16.516-56.776 16.524-88.666v-0.003zM302.545 429.382c29.962 51.137 76.726 89.675 132.575 108.419l1.709 0.497h148.48c58.26-18.926 105.692-57.525 135.528-107.793l0.617-1.123z" />
<glyph unicode="&#xe91b;" glyph-name="gift" d="M622.080 603.927c24.080 8.038 44.807 20.36 62.284 36.203l-0.146-0.13c17.043 17.943 27.526 42.259 27.526 69.024 0 1.261-0.023 2.517-0.069 3.767l0.005-0.181c-0.768 27.676-12.871 52.382-31.811 69.753l-0.072 0.066c-18.14 16.356-42.284 26.362-68.764 26.362-1.271 0-2.537-0.023-3.796-0.069l0.182 0.005c-27.62-1.046-52.239-13.079-69.765-31.826l-0.053-0.057c-11.444-14.143-19.635-31.382-23.163-50.263l-0.109-0.704c-4.096 19.509-12.217 36.662-23.488 51.258l0.215-0.29c-18.315 19.025-43.748 31.084-72 31.88l-0.146 0.003c-1.253 0.057-2.723 0.090-4.2 0.090-26.156 0-49.924-10.225-67.524-26.896l0.045 0.042c-19.694-18.214-31.983-44.188-31.983-73.032 0-26.783 10.595-51.091 27.823-68.962l-0.029 0.030c18.004-15.385 39.208-27.661 62.403-35.663l1.364-0.409h-174.080v-515.724h558.545v515.724zM495.244 122.182h-229.004v220.393h229.004zM495.244 376.553h-229.004v193.862h229.004zM497.105 609.28c-50.502 13.498-111.244 34.909-128.233 53.527-10.745 11.969-17.315 27.875-17.315 45.316 0 19.21 7.971 36.559 20.786 48.919l0.020 0.020c11.959 11.246 28.108 18.156 45.872 18.156 0.237 0 0.474-0.001 0.71-0.004h-0.036c18.254-0.995 34.531-8.72 46.546-20.714l-0.001 0.001c13.731-14.429 24.669-64.233 30.953-139.636 0.931-2.095 0.698-3.956 0.698-6.051zM561.804 753.804c11.734 12.462 28.163 20.389 46.446 20.943l0.1 0.002h1.862c0.155 0.001 0.339 0.002 0.523 0.002 36.889 0 66.793-29.904 66.793-66.793 0-17.88-7.026-34.12-18.468-46.108l0.025 0.026c-16.989-18.618-77.731-40.029-128.233-53.76 0 1.629 0 3.491 0 4.887 5.818 72.378 17.687 126.371 30.953 140.335zM757.76 122.182h-229.004v220.393h229.004zM757.76 376.553h-229.004v193.862h229.004z" />
<glyph unicode="&#xe91c;" glyph-name="isotipo" d="M660.247 594.618v0l69.818 68.655 157.324 155.462c-112.753-25.984-210.186-80.523-287.57-155.608l0.152 0.147h-422.4c-0.138 0.002-0.302 0.003-0.465 0.003-22.236 0-40.262-18.026-40.262-40.262 0-0.001 0-0.002 0-0.003v0-505.484c0-0.001 0-0.002 0-0.003 0-22.236 18.026-40.262 40.262-40.262 0.164 0 0.327 0.001 0.49 0.003h511.975c0.138-0.002 0.302-0.003 0.465-0.003 22.236 0 40.262 18.026 40.262 40.262 0 0.001 0 0.002 0 0.003v0 417.047l-69.818-69.818v-319.302h-454.051v449.164h332.335c-48.628-63.247-85.172-138.487-104.623-220.347l-0.802-4.002z" />
<glyph unicode="&#xe91d;" glyph-name="laptop" d="M857.135 242.735h-690.269c-1.032 0.074-2.236 0.116-3.45 0.116-28.277 0-51.2-22.923-51.2-51.2s22.923-51.2 51.2-51.2c1.214 0 2.418 0.042 3.611 0.125l-0.161-0.009h690.269c1.032-0.074 2.236-0.116 3.45-0.116 28.277 0 51.2 22.923 51.2 51.2s-22.923 51.2-51.2 51.2c-1.214 0-2.418-0.042-3.611-0.125l0.161 0.009zM857.135 175.476h-690.269c-0.584-0.074-1.259-0.116-1.944-0.116-8.997 0-16.291 7.294-16.291 16.291s7.294 16.291 16.291 16.291c0.685 0 1.36-0.042 2.023-0.124l-0.079 0.008h690.269c0.584 0.074 1.259 0.116 1.944 0.116 8.997 0 16.291-7.294 16.291-16.291s-7.294-16.291-16.291-16.291c-0.685 0-1.36 0.042-2.023 0.124l0.079-0.008zM235.985 278.342h552.029c37.146 0 67.258 30.113 67.258 67.258v0 342.807c0 0 0 0 0 0 0 37.017-30.008 67.025-67.025 67.025-0.082 0-0.164 0-0.245 0h-552.016c-0.069 0-0.151 0-0.233 0-37.017 0-67.025-30.008-67.025-67.025 0 0 0 0 0 0v0-342.807c0-37.146 30.113-67.258 67.258-67.258v0zM203.636 688.407c0 0 0 0.001 0 0.001 0 17.737 14.379 32.116 32.116 32.116 0.082 0 0.164 0 0.245-0.001h552.016c0.069 0.001 0.151 0.001 0.233 0.001 17.737 0 32.116-14.379 32.116-32.116 0 0 0-0.001 0-0.001v0-342.807c0-17.866-14.483-32.349-32.349-32.349v0h-552.029c-17.866 0-32.349 14.483-32.349 32.349v0z" />
<glyph unicode="&#xe91e;" glyph-name="link-arrow" d="M768 448c0 0-0.001 0-0.001 0-11.1 0-20.114-8.933-20.246-20.002v-167.808c0-46.271-37.51-83.782-83.782-83.782v0h-344.204c0 0 0 0 0 0-46.318 0-83.882 37.482-84.014 83.769v335.606c0.132 46.3 37.696 83.782 84.014 83.782 0 0 0 0 0 0h170.124c11.182 0 20.247 9.065 20.247 20.247s-9.065 20.247-20.247 20.247h-170.124c-68.583-0.132-124.144-55.694-124.276-124.264v-335.838c0.132-68.583 55.694-124.144 124.264-124.276h343.053c68.583 0.132 124.144 55.694 124.276 124.264v167.809c0 0.010 0 0.022 0 0.033 0 10.773-8.413 19.581-19.028 20.211l-0.056 0.003zM597.411 760.32c-11.182 0-20.247-9.065-20.247-20.247s9.065-20.247 20.247-20.247h162.909l-275.782-274.851c-3.606-3.689-5.832-8.741-5.832-14.313s2.225-10.624 5.835-14.317l-0.004 0.004c3.652-3.593 8.665-5.811 14.196-5.811s10.545 2.218 14.199 5.813l-0.003-0.003 275.316 274.851v-157.324c1.132-10.21 9.712-18.080 20.131-18.080s18.999 7.869 20.123 17.988l0.008 0.091v226.444z" />
<glyph unicode="&#xe91f;" glyph-name="link" d="M818.502 747.287c28.383-29.283 45.878-69.262 45.878-113.327 0-45.459-18.62-86.57-48.649-116.121l-0.021-0.021-157.556-154.065c-29.36-28.792-69.62-46.562-114.030-46.562-0.821 0-1.64 0.006-2.458 0.018l0.124-0.001c-44.89 0.352-85.333 19.096-114.222 49.057l-0.047 0.049c-3.596 3.617-5.818 8.603-5.818 14.109 0 0.031 0 0.062 0 0.093v-0.005c0.121 5.554 2.41 10.55 6.051 14.197v0c3.558 3.458 8.42 5.59 13.781 5.59 0.146 0 0.292-0.002 0.437-0.005h-0.022c0.046 0 0.1 0.001 0.155 0.001 5.527 0 10.512-2.321 14.033-6.043l0.008-0.009c22.308-22.682 53.327-36.737 87.629-36.737 33.257 0 63.428 13.211 85.551 34.672l-0.031-0.030 157.556 154.065c22.786 22.257 36.917 53.289 36.917 87.622 0 67.624-54.82 122.444-122.444 122.444-33.291 0-63.479-13.286-85.551-34.845l0.024 0.023-120.553-117.76c-3.448-2.809-7.895-4.51-12.74-4.51-11.182 0-20.247 9.065-20.247 20.247 0 5.019 1.826 9.611 4.85 13.149l-0.023-0.028 121.251 117.993c29.36 28.792 69.62 46.562 114.030 46.562 0.821 0 1.64-0.006 2.458-0.018l-0.124 0.001c44.756-0.985 84.917-19.872 113.757-49.755l0.046-0.048zM585.775 520.844c3.459-3.419 5.602-8.164 5.602-13.41 0-0.277-0.006-0.552-0.018-0.826l0.001 0.039c0-0.026 0-0.057 0-0.088 0-5.505-2.223-10.491-5.819-14.11l0.001 0.001c-3.689-3.606-8.741-5.832-14.313-5.832s-10.624 2.225-14.317 5.835l0.004-0.004c-21.83 22.576-52.291 36.688-86.050 37.003h-0.059c-0.178 0.001-0.388 0.001-0.598 0.001-33.302 0-63.492-13.323-85.531-34.93l-148.227-144.97c-22.576-21.83-36.688-52.291-37.003-86.050v-0.059c-0.005-0.396-0.007-0.865-0.007-1.333 0-33.365 13.323-63.618 34.939-85.73l-0.022 0.023c22.324-22.556 53.289-36.523 87.516-36.523 33.296 0 63.505 13.218 85.666 34.692l-0.032-0.031 101.935 99.607c3.698 3.487 8.697 5.63 14.196 5.63s10.498-2.143 14.207-5.64l-0.010 0.010c3.596-3.617 5.818-8.603 5.818-14.109 0-0.031 0-0.062 0-0.093v0.005c-0.068-5.563-2.37-10.576-6.048-14.194l-0.003-0.003-101.935-100.305c-27.794-22.752-63.693-36.541-102.813-36.541-89.972 0-162.909 72.937-162.909 162.909 0 40.746 14.959 77.998 39.685 106.564l-0.174-0.205 148.247 144.989c29.118 28.789 69.169 46.573 113.374 46.573 1.051 0 2.1-0.010 3.147-0.030l-0.157 0.002c44.237-0.888 83.978-19.426 112.605-48.837l0.035-0.036z" />
<glyph unicode="&#xe920;" glyph-name="lipstick" d="M535.273 824.32v0c-11.613-0.324-22.459-3.299-32.053-8.338l0.402 0.192c-12.939-6.365-24.056-14.137-33.813-23.336l0.068 0.063c-10.542-8.418-17.691-20.701-19.294-34.669l-0.022-0.24v-59.113c-9.796-0.131-17.687-8.103-17.687-17.918 0-0.001 0-0.001 0-0.002v0-300.916h-9.076c-9.844-0.129-17.791-8.076-17.92-17.908v-272.768c0.129-9.844 8.076-17.791 17.908-17.92h174.557c9.844 0.129 17.791 8.076 17.92 17.908v273.467c-0.129 9.844-8.076 17.791-17.908 17.92h-8.39v299.985c0 0 0 0.001 0 0.002 0 9.815-7.891 17.787-17.675 17.918h-0.012v89.367c-0.013 8.834-3.080 16.949-8.203 23.347l0.057-0.074c-5.15 5.931-12.244 10.055-20.282 11.377l-0.198 0.027c-1.082 0.113-2.337 0.177-3.607 0.177s-2.526-0.064-3.763-0.19l0.156 0.013zM495.244 767.302c6.731 6.368 14.383 11.867 22.712 16.254l0.561 0.269c4.86 2.247 10.5 3.956 16.409 4.844l0.347 0.043v-88.902h-47.942v56.553c2.081 4.234 4.73 7.85 7.903 10.929l0.010 0.009zM555.287 663.738v-282.996h-85.644v282.996zM581.818 107.287h-139.636v237.615h139.636z" />
<glyph unicode="&#xe921;" glyph-name="log-out" d="M608 73.6v201.6h41.6v-243.2h-585.6v832h585.6v-243.2h-41.6v201.6h-502.4v-748.8h502.4zM918.4 464c12.8-12.8 12.8-28.8 0-41.6v0l-163.2-163.2-41.6 41.6 115.2 115.2h-476.8v57.6h473.6l-108.8 108.8 41.6 41.6 160-160z" />
<glyph unicode="&#xe922;" glyph-name="logo-unique" d="M171.319 488.408v0l53.459 53.911c-26.659-6.294-49.641-19.41-67.773-37.405l0.009 0.009h-99.539c-5.301-0.028-9.587-4.332-9.587-9.638 0 0 0 0 0 0v0-121.625c0 0 0 0 0-0.001 0-5.315 4.28-9.631 9.582-9.687h120.476c5.301 0.028 9.588 4.332 9.588 9.638 0 0.018 0 0.035 0 0.053v-0.003 100.392l-16.364-16.515v-77.001h-106.867v107.871h78.356c-11.553-15.241-20.25-33.332-24.904-52.987l-0.195-0.974zM495.837 472.195v-88.295l-52.505 88.345h-17.82v-108.173h13.704v88.295l52.555-88.295h17.82v108.122h-13.754zM361.111 472.345v-71.278c0-14.443-11.709-26.152-26.152-26.152s-26.152 11.709-26.152 26.152v0 71.278h-13.754v-71.278c-0.16-1.345-0.251-2.903-0.251-4.483 0-22.178 17.979-40.157 40.157-40.157s40.157 17.979 40.157 40.157c0 1.579-0.091 3.137-0.269 4.669l0.018-0.187v71.278zM853.333 472.345v-71.278c0.016-0.342 0.025-0.743 0.025-1.147 0-14.471-11.731-26.202-26.202-26.202s-26.202 11.731-26.202 26.202c0 0.403 0.009 0.804 0.027 1.203l-0.002-0.057v71.278h-13.754v-71.278c-0.144-1.276-0.226-2.755-0.226-4.253 0-22.178 17.979-40.157 40.157-40.157s40.157 17.979 40.157 40.157c0 1.498-0.082 2.977-0.242 4.433l0.016-0.18v71.278zM722.824 376.571c10.783 10.342 17.483 24.869 17.483 40.96 0 31.326-25.395 56.722-56.722 56.722s-56.722-25.395-56.722-56.722c0-31.326 25.395-56.722 56.722-56.722 0.048 0 0.095 0 0.143 0h-0.007c9.889 0.021 19.174 2.586 27.243 7.074l-0.287-0.147 23.642-14.055 6.977 11.896zM683.721 461.653c0.119 0.001 0.26 0.002 0.402 0.002 24.035 0 43.52-19.485 43.52-43.52s-19.485-43.52-43.52-43.52c-24.035 0-43.52 19.485-43.52 43.52 0 0.017 0 0.034 0 0.051v-0.003c0 0.030 0 0.066 0 0.101 0 23.864 19.274 43.226 43.105 43.369h0.014zM976.113 458.491v13.854h-58.579v-108.173h58.579v13.854h-44.825v34.685h43.219v13.854h-43.219v31.925h44.825zM565.559 472.345h13.754v-108.323h-13.754v108.323z" />
<glyph unicode="&#xe923;" glyph-name="logo-yanbal" d="M730.052 418.635c4.763 5.302 7.677 12.35 7.68 20.078v0.001c0.006 0.212 0.009 0.462 0.009 0.712 0 15.568-12.412 28.237-27.879 28.651l-0.038 0.001h-33.832v-109.879h37.898c17.243 0.498 31.030 14.595 31.030 31.912 0 0.269-0.003 0.538-0.010 0.805l0.001-0.040c0.002 0.149 0.004 0.325 0.004 0.501 0 11.382-5.865 21.395-14.737 27.181l-0.125 0.076zM689.242 409.5h24.646c10.313 0 18.673-8.36 18.673-18.673s-8.36-18.673-18.673-18.673h-24.646zM709.823 423.404h-20.58v30.871h20.58c8.151-0.479 14.58-7.207 14.58-15.435s-6.429-14.956-14.538-15.433l-0.042-0.002zM606.118 468.58v-90.504l-53.559 90.554h-17.97v-110.431h13.804v90.504l53.559-90.504h17.97v110.381h-13.804zM362.165 468.631l-33.38-48.59-33.33 48.59h-16.866l43.219-62.996 0.050-47.435h13.804l0.050 47.435 43.269 62.996h-16.816zM839.228 466.271l-0.904 2.359h-15.209l-42.566-110.431h14.808l35.388 91.658 34.485-89.399 0.954-2.259h14.758l-41.713 108.072zM939.169 372.204v96.427h-13.051v-110.431h55.216v14.005h-42.165zM447.799 465.92l-0.904 2.309h-15.109l-42.315-110.231h14.707l35.137 91.507 35.137-91.507h14.707l-41.362 107.922zM168.107 484.292v0l16.665 16.414 37.697 37.245c-27.010-6.249-50.351-19.311-68.908-37.283l0.039 0.037h-101.195c-0.015 0-0.033 0-0.051 0-5.315 0-9.631-4.28-9.687-9.582v-121.178c0-0.030-0.001-0.065-0.001-0.101 0-5.35 4.337-9.688 9.688-9.688 0.018 0 0.036 0 0.053 0h122.626c0.015 0 0.033 0 0.050 0 5.333 0 9.659 4.309 9.688 9.635v100.094l-16.665-16.464v-76.649h-108.775v107.52h79.661c-11.577-15.169-20.277-33.197-24.907-52.799l-0.191-0.961z" />
<glyph unicode="&#xe924;" glyph-name="message" d="M886.4 768h-748.8c-41.6 0-73.6-32-73.6-73.6v-496c0-38.4 32-70.4 73.6-70.4h752c38.4 0 73.6 32 73.6 73.6v492.8c-3.2 41.6-35.2 73.6-76.8 73.6zM886.4 739.2c6.4 0 12.8-3.2 19.2-6.4l-358.4-316.8c-19.2-16-51.2-16-67.2 0l-364.8 316.8c6.4 3.2 12.8 6.4 22.4 6.4h748.8zM931.2 201.6c0-25.6-19.2-44.8-44.8-44.8h-748.8c-22.4 0-44.8 19.2-44.8 44.8v492.8c0 6.4 0 12.8 3.2 16l294.4-256-166.4-156.8c-6.4-6.4-6.4-16 0-19.2 3.2-3.2 6.4-3.2 9.6-3.2s6.4 0 9.6 3.2l166.4 156.8c0 0 0 0 0 0l48-41.6c16-12.8 35.2-19.2 54.4-19.2s38.4 6.4 54.4 19.2l48 41.6c0 0 0 0 0 0l166.4-156.8c3.2-3.2 6.4-3.2 9.6-3.2s6.4 0 9.6 3.2c6.4 6.4 6.4 16 0 19.2l-166.4 156.8 294.4 256c3.2-6.4 3.2-9.6 3.2-16v-492.8z" />
<glyph unicode="&#xe925;" glyph-name="mobile" d="M687.709 848.989h-351.418c-27.249 0-49.338-22.089-49.338-49.338v0-703.302c0-27.249 22.089-49.338 49.338-49.338h351.418c27.249 0 49.338 22.089 49.338 49.338v0 703.302c0 27.249-22.089 49.338-49.338 49.338v0zM709.12 96.349c0-11.825-9.586-21.411-21.411-21.411v0h-351.418c0 0-0.001 0-0.001 0-11.872 0-21.511 9.558-21.642 21.398v703.314c0.512 11.546 9.998 20.713 21.624 20.713 0.007 0 0.014 0 0.021 0h351.417c11.825 0 21.411-9.586 21.411-21.411v0zM512 232.96c-26.991 0-48.872-21.881-48.872-48.873s21.881-48.873 48.873-48.873c26.992 0 48.873 21.881 48.873 48.873 0 0.082 0 0.164-0.001 0.245v-0.013c-0.132 26.891-21.962 48.64-48.872 48.64 0 0 0 0-0.001 0v0zM512 163.142c-11.568 0-20.945 9.378-20.945 20.945s9.378 20.945 20.945 20.945c11.568 0 20.945-9.378 20.945-20.945v0c-0.131-11.467-9.458-20.713-20.944-20.713 0 0-0.001 0-0.001 0v0zM569.716 750.545h-116.364c-7.712 0-13.964-6.252-13.964-13.964s6.252-13.964 13.964-13.964h116.364c7.712 0 13.964 6.252 13.964 13.964s-6.252 13.964-13.964 13.964v0z" />
<glyph unicode="&#xe926;" glyph-name="negative" d="M801.513 423.331h-579.025c-13.624 0-24.669 11.045-24.669 24.669s11.045 24.669 24.669 24.669v0h579.025c13.624 0 24.669-11.045 24.669-24.669s-11.045-24.669-24.669-24.669v0z" />
<glyph unicode="&#xe927;" glyph-name="pen" d="M833.862 714.705l-55.389 55.389c-13.459 13.178-31.904 21.31-52.247 21.31s-38.788-8.132-52.26-21.322l0.013 0.013-439.156-440.087c-6.571-6.707-10.979-15.556-12.084-25.403l-0.018-0.197-53.527-180.131c-0.35-1.204-0.552-2.587-0.552-4.017 0-4.409 1.916-8.37 4.96-11.097l0.014-0.012c2.683-2.869 6.491-4.656 10.717-4.656 0.078 0 0.155 0.001 0.233 0.002h3.712l179.665 53.527c10.756 1.132 20.296 5.615 27.735 12.37l-0.040-0.036 439.156 440.553c12.438 13.471 20.066 31.546 20.066 51.402 0 20.335-8 38.801-21.024 52.423l0.027-0.029zM206.895 142.196l34.909 116.364 82.385-82.385zM372.364 192c-2.389-2.589-5.8-4.205-9.588-4.205-0.229 0-0.457 0.006-0.684 0.018l0.032-0.001c-0.037 0-0.080-0.001-0.123-0.001-3.518 0-6.656 1.626-8.704 4.168l-0.017 0.022-97.28 96.349c-2.549 2.347-4.14 5.701-4.14 9.425s1.591 7.078 4.131 9.417l0.009 0.008 370.036 370.036 114.967-116.364zM812.451 631.855l-46.545-46.545-114.967 116.364 46.545 46.545c7.857 7.585 18.568 12.258 30.371 12.258s22.514-4.673 30.384-12.271l-0.013 0.012 55.156-55.156c7.19-7.805 11.598-18.268 11.598-29.762 0-12.201-4.968-23.242-12.992-31.211l-0.002-0.002z" />
<glyph unicode="&#xe928;" glyph-name="phone" d="M855.738 270.196l-139.636 113.804c-10.077 8.071-23.013 12.953-37.089 12.953-16.064 0-30.643-6.357-41.358-16.693l0.018 0.017-54.225-54.225c-6.379-5.681-14.833-9.152-24.099-9.152-6.073 0-11.798 1.491-16.828 4.127l0.2-0.095-7.447 3.956c-6.284 3.724-12.8 7.68-19.549 12.335-23.527 15.952-44.080 33.106-62.79 52.083l-0.047 0.048c-19.025 18.756-36.18 39.31-51.22 61.417l-0.911 1.419c-3.872 5.416-7.878 11.726-11.549 18.249l-0.553 1.068-3.724 6.982c-2.793 5.023-4.438 11.016-4.438 17.394 0 9.234 3.447 17.663 9.125 24.070l-0.033-0.038 54.225 54.225c10.485 10.66 16.959 25.295 16.959 41.441 0 14.051-4.902 26.957-13.090 37.101l0.088-0.113-114.036 139.636c-9.245 11.67-23.415 19.090-39.318 19.090-14.053 0-26.753-5.793-35.842-15.122l-0.011-0.011-85.411-86.342c-33.28-33.28-31.884-106.124 3.491-200.145 36.747-94.328 89.138-175.053 154.73-242.941l-0.199 0.207c98.909-98.676 265.309-181.76 369.571-181.76 2.474-0.216 5.352-0.339 8.259-0.339 24.755 0 47.425 8.926 64.967 23.735l-0.15-0.123 85.876 85.644c9.349 9.137 15.146 21.873 15.146 35.963 0 15.943-7.422 30.153-18.999 39.362l-0.103 0.079zM837.818 217.833l-85.644-85.876c-24.669-24.669-89.367-19.316-172.916 13.964-86.898 35.133-161.302 83.842-224.363 144.293l0.247-0.235c-60.834 62.751-110.073 137.155-143.997 219.483l-1.69 4.633c-33.28 83.549-38.633 148.247-13.964 172.684l85.876 85.876c3.291 3.474 7.891 5.678 13.007 5.818l0.025 0.001c5.508-0.382 10.311-3.106 13.467-7.172l0.032-0.042 113.804-139.636c3.525-4.544 5.652-10.328 5.652-16.608 0-7.167-2.769-13.688-7.296-18.55l0.015 0.016-54.225-54.225c-11.684-12.151-18.88-28.691-18.88-46.912 0-11.991 3.116-23.254 8.583-33.023l-0.176 0.342c1.475-3.077 2.87-5.593 4.389-8.023l-0.2 0.343c3.956-6.749 8.378-13.964 13.265-21.411 17.462-25.262 35.898-47.392 56.115-67.752l-0.028 0.028c20.261-20.357 42.404-38.806 66.158-55.074l1.566-1.013c7.68-5.12 14.895-9.542 21.644-13.498l8.145-4.422c9.24-5.036 20.236-7.997 31.925-7.997 18.249 0 34.812 7.218 46.991 18.955l-0.021-0.020 54.225 54.225c4.846 4.512 11.366 7.281 18.533 7.281 6.28 0 12.064-2.126 16.67-5.698l-0.062 0.046 139.636-114.036c4.123-3.080 6.86-7.821 7.212-13.212l0.003-0.053c0.086-0.669 0.136-1.443 0.136-2.228 0-4.265-1.452-8.191-3.89-11.311l0.031 0.041z" />
<glyph unicode="&#xe929;" glyph-name="play" d="M512 792.902c-190.484 0-344.902-154.418-344.902-344.902s154.418-344.902 344.902-344.902c190.484 0 344.902 154.418 344.902 344.902v0c-0.265 190.378-154.525 344.637-344.877 344.902h-0.025zM512 137.309c-171.59 0-310.691 139.101-310.691 310.691s139.101 310.691 310.691 310.691c171.59 0 310.691-139.101 310.691-310.691v0c-0.264-171.483-139.207-310.426-310.665-310.691h-0.026zM445.905 582.284c-2.572 1.649-5.71 2.628-9.076 2.628-9.383 0-16.989-7.606-16.989-16.989 0-0.024 0-0.048 0-0.071v0.004-239.476c0-0.034 0-0.074 0-0.115 0-6.302 3.432-11.803 8.529-14.736l0.082-0.044c2.432-1.289 5.311-2.060 8.367-2.094h0.011c0.091-0.002 0.198-0.003 0.305-0.003 3.257 0 6.29 0.956 8.835 2.602l-0.064-0.039 190.138 118.691c4.913 2.98 8.146 8.3 8.146 14.375 0 0.019 0 0.038 0 0.057v-0.003c0 0.020 0 0.044 0 0.068 0 6.016-3.127 11.302-7.845 14.321l-0.068 0.041zM454.749 359.098v177.571l141.033-88.669z" />
<glyph unicode="&#xe92a;" glyph-name="positive" d="M801.513 469.644h-267.869v267.869c0 11.953-9.69 21.644-21.644 21.644s-21.644-9.69-21.644-21.644v-267.869h-267.869c-11.953 0-21.644-9.69-21.644-21.644s9.69-21.644 21.644-21.644h267.869v-267.869c0-11.953 9.69-21.644 21.644-21.644s21.644 9.69 21.644 21.644v267.869h267.869c11.953 0 21.644 9.69 21.644 21.644s-9.69 21.644-21.644 21.644v0z" />
<glyph unicode="&#xe92b;" glyph-name="profile" d="M515.2 380.8c124.8 0 224 102.4 224 227.2s-99.2 224-224 224-224-102.4-224-227.2 99.2-224 224-224zM515.2 793.6c102.4 0 185.6-83.2 185.6-185.6s-83.2-185.6-185.6-185.6-185.6 83.2-185.6 185.6 83.2 185.6 185.6 185.6zM960 35.2c0 3.2-12.8 214.4-220.8 332.8h-3.2c-54.4-51.2-118.4-115.2-217.6-115.2v0c-89.6 0-134.4 38.4-185.6 86.4-9.6 9.6-22.4 19.2-32 28.8h-6.4c-227.2-118.4-230.4-329.6-230.4-332.8v-3.2h896v3.2zM889.6 144c9.6-22.4 19.2-48 22.4-73.6h-803.2c12.8 60.8 51.2 172.8 182.4 249.6 3.2-3.2 9.6-9.6 12.8-12.8 54.4-48 108.8-96 211.2-96v0c51.2 0 99.2 12.8 144 41.6 32 19.2 60.8 44.8 80 64 70.4-41.6 121.6-99.2 150.4-172.8z" />
<glyph unicode="&#xe92c;" glyph-name="search" d="M953.6 32l-291.2 291.2c0 0 0 0 0 0 51.2 60.8 83.2 140.8 83.2 227.2 3.2 192-150.4 345.6-339.2 345.6s-342.4-153.6-342.4-345.6c0-188.8 153.6-345.6 342.4-345.6 89.6 0 169.6 35.2 230.4 89.6 0 0 0 0 0 0l291.2-291.2c3.2-3.2 9.6-6.4 12.8-6.4 6.4 0 9.6 3.2 12.8 6.4 9.6 9.6 9.6 22.4 0 28.8zM406.4 246.4c-166.4 0-304 137.6-304 307.2s137.6 307.2 304 307.2 304-137.6 304-307.2c0-169.6-137.6-307.2-304-307.2z" />
<glyph unicode="&#xe92d;" glyph-name="send-wishlist" d="M184.32 275.549c-9.459 0.129-17.093 7.763-17.222 17.21v0.012c0 0.003 0 0.007 0 0.011 0 4.669 1.964 8.88 5.112 11.85l0.008 0.007 109.382 109.615c3.109 3.072 7.384 4.969 12.102 4.969 9.458 0 17.136-7.625 17.221-17.063v-0.008c-0.043-4.738-1.993-9.013-5.118-12.1l-109.384-109.384c-3.089-3.127-7.364-5.077-12.094-5.12h-0.008zM454.051 241.804c3.109 3.072 7.384 4.969 12.102 4.969 9.458 0 17.136-7.625 17.221-17.063v-0.008c-0.043-4.738-1.993-9.013-5.118-12.1l-0.002-0.002-109.615-109.382c-3.083-2.939-7.267-4.747-11.873-4.747-9.38 0-17.009 7.499-17.217 16.829v0.019c0 0.003 0 0.007 0 0.011 0 4.669 1.964 8.88 5.112 11.85l0.008 0.007zM397.033 317.44c-0.060-4.242-1.732-8.083-4.429-10.946l0.008 0.008-198.982-198.749c-2.758-2.871-6.628-4.655-10.916-4.655-0.008 0-0.016 0-0.023 0h0.001c-8.559 0.129-15.464 7.033-15.593 15.58v0.012c0 0.007 0 0.014 0 0.022 0 4.287 1.784 8.158 4.649 10.911l0.005 0.005 198.749 198.982c2.901 3.14 7.040 5.1 11.636 5.1s8.735-1.96 11.627-5.089l0.010-0.011c2.064-2.727 3.306-6.177 3.306-9.916 0-0.442-0.017-0.879-0.051-1.312l0.004 0.057zM856.669 778.705c0.055-0.419 0.086-0.904 0.086-1.396s-0.031-0.977-0.092-1.453l0.006 0.056c0.043-0.384 0.068-0.829 0.068-1.28s-0.025-0.896-0.073-1.334l0.005 0.054v0.465c0.043-0.175 0.067-0.375 0.067-0.582s-0.024-0.407-0.071-0.599l0.004 0.017-209.455-657.222c-2.187-6.388-7.954-10.979-14.847-11.401l-0.047-0.002c-6.729 0.087-12.494 4.128-15.085 9.901l-0.043 0.106-133.12 305.571-306.502 117.76c-6.193 2.554-10.473 8.544-10.473 15.534 0 0.021 0 0.042 0 0.062v-0.003c0.222 7.006 4.772 12.893 11.055 15.092l0.116 0.035 657.222 224.116h14.196c0.885-0.54 1.649-1.156 2.324-1.858l0.004-0.004 1.862-2.095s0 0 0 0v0c0.042-0.384 0.065-0.829 0.065-1.28s-0.024-0.896-0.070-1.335l0.005 0.055c1.728-1.796 2.793-4.241 2.793-6.935 0-0.016 0-0.033 0-0.049v0.003zM231.331 551.796l261.12-100.305 287.185 287.185zM628.364 165.935l175.476 551.796-288.116-289.047z" />
<glyph unicode="&#xe92e;" glyph-name="shooping" d="M817.571 634.182c-15.762 18.421-39.034 30.022-65.016 30.022-0.052 0-0.104 0-0.156 0h-439.148l-10.705 60.742c-7.625 39.995-42.318 69.819-83.976 69.819-0.095 0-0.191 0-0.286 0h-59.33c-10.303-0.108-18.689-8.169-19.314-18.33l-0.003-0.055c0-10.668 8.648-19.316 19.316-19.316v0h59.811c0.19 0.003 0.413 0.004 0.637 0.004 22.995 0 42.096-16.675 45.869-38.593l0.039-0.276 63.767-373.527c6.941-40.656 41.915-71.215 84.026-71.215 0.078 0 0.156 0 0.233 0h302.533c0.054 0 0.119 0 0.183 0 42.194 0 77.222 30.679 83.995 70.948l0.069 0.5 37.702 219.462c0.68 4.044 1.069 8.703 1.069 13.453 0 21.656-8.082 41.425-21.394 56.454l0.078-0.089zM798.255 571.345l-36.538-219.927c-3.812-22.194-22.913-38.87-45.908-38.87-0.224 0-0.448 0.002-0.671 0.005h-302.511c-0.178-0.002-0.388-0.004-0.599-0.004-23.078 0-42.233 16.796-45.909 38.83l-0.037 0.272-46.545 273.687h432.873c0.011 0 0.025 0 0.038 0 14.234 0 26.976-6.389 35.514-16.456l0.056-0.067c6.776-8.031 10.894-18.497 10.894-29.925 0-2.747-0.238-5.439-0.695-8.056l0.040 0.278zM421.236 226.909c-35.089 0-63.534-28.446-63.534-63.535s28.445-63.535 63.535-63.535c35.089 0 63.535 28.445 63.535 63.535 0 0.082 0 0.164 0 0.245v-0.013c0 0 0 0 0 0 0 34.961-28.341 63.302-63.302 63.302-0.082 0-0.164 0-0.245 0h0.013zM421.236 138.938c-0.417-0.025-0.905-0.040-1.396-0.040-13.624 0-24.669 11.045-24.669 24.669s11.045 24.669 24.669 24.669c13.61 0 24.647-11.022 24.669-24.627v-0.002c0-0.012 0-0.026 0-0.040 0-13.133-10.263-23.869-23.206-24.626l-0.067-0.003zM695.389 226.909c-35.089 0-63.534-28.446-63.534-63.535s28.445-63.535 63.535-63.535c35.089 0 63.535 28.445 63.535 63.535 0 0.082 0 0.164 0 0.245v-0.013c-0.132 34.989-28.527 63.302-63.534 63.302 0 0 0 0 0 0v0zM695.389 138.938c-0.069-0.001-0.151-0.001-0.233-0.001-13.624 0-24.669 11.045-24.669 24.669s11.045 24.669 24.669 24.669c13.624 0 24.668-11.044 24.669-24.668v0c0 0 0-0.001 0-0.001 0-13.543-10.912-24.536-24.424-24.668h-0.012z" />
<glyph unicode="&#xe92f;" glyph-name="style-advisor" d="M646.4 630.4l-102.4 105.6 144 22.4 64 137.6 64-137.6 144-22.4-105.6-105.6 25.6-150.4-128 70.4-128-70.4 22.4 150.4zM694.4 716.8l-64-9.6 64-64-3.2-19.2-9.6-67.2 54.4 28.8 19.2 12.8 19.2-12.8 54.4-28.8-9.6 67.2-3.2 19.2 64 64-64 9.6-22.4 3.2-9.6 19.2-25.6 57.6-25.6-57.6-9.6-19.2-28.8-3.2zM960 3.2v-3.2h-896v3.2c0 3.2 0 214.4 227.2 332.8h3.2c12.8-9.6 22.4-19.2 32-28.8 51.2-44.8 96-83.2 185.6-86.4v0c99.2 0 166.4 64 217.6 115.2h6.4c124.8-67.2 208-192 224-332.8zM105.6 38.4h806.4c-6.4 25.6-12.8 48-22.4 73.6-32 73.6-83.2 134.4-150.4 176-25.6-22.4-51.2-44.8-80-64-44.8-28.8-92.8-41.6-144-41.6v0c-102.4 0-160 48-211.2 96l-12.8 9.6c-96-51.2-163.2-144-185.6-249.6zM515.2 348.8c-124.8 3.2-220.8 108.8-217.6 233.6 3.2 118.4 99.2 214.4 217.6 217.6 19.2 0 41.6-3.2 60.8-9.6l-32-32c-9.6 3.2-22.4 3.2-32 3.2-99.2 0-172.8-83.2-176-182.4-6.4-102.4 73.6-188.8 176-188.8 73.6 0 140.8 41.6 169.6 108.8l51.2 12.8c-28.8-96-118.4-163.2-217.6-163.2z" />
<glyph unicode="&#xe930;" glyph-name="support" d="M828.8 764.48c-81.070 81.062-193.064 131.2-316.768 131.2-247.424 0-448-200.576-448-448s200.576-448 448-448c123.704 0 235.697 50.138 316.768 131.2v0c81.082 81.074 131.232 193.080 131.232 316.8s-50.151 235.726-131.232 316.8v0zM660.8 328c26.059 32.493 41.821 74.218 41.821 119.625 0 44.313-15.012 85.119-40.227 117.611l0.326-0.436 152.64 152.64c63.908-71.225 102.985-165.868 102.985-269.638 0-104.946-39.968-200.557-105.512-272.441l0.287 0.32zM404.8 553.92c27.228 27.282 64.872 44.16 106.458 44.16 83.064 0 150.4-67.336 150.4-150.4s-67.336-150.4-150.4-150.4c-41.586 0-79.23 16.878-106.455 44.158l-0.002 0.002c-27.195 27.068-44.024 64.531-44.024 105.923 0 41.709 17.087 79.428 44.644 106.537l0.020 0.020zM785.28 745.92l-151.68-151.040c-32.571 27.869-75.198 44.829-121.786 44.829-45.537 0-87.289-16.204-119.806-43.16l0.311 0.251-152.32 152.32c71.564 65.074 167.083 104.919 271.909 104.919 105.826 0 202.168-40.609 274.292-107.094l-0.281 0.255zM105.6 448c-0.001 0.27-0.001 0.591-0.001 0.911 0 104.571 39.872 199.829 105.242 271.401l-0.281-0.312 152.32-152.32c-26.053-32.491-41.812-74.212-41.812-119.614 0-46.475 16.513-89.093 43.991-122.308l-0.259 0.322-152.32-152.64c-66.252 71.76-106.881 168.039-106.881 273.807 0 0.265 0 0.529 0.001 0.794v-0.041zM242.24 144.64l152.32 152.64c32.002-26.217 73.346-42.106 118.4-42.106s86.398 15.889 118.732 42.37l-0.332-0.264 152.32-152.32c-71.52-65.073-167-104.919-271.786-104.919-103.777 0-198.427 39.083-270.032 103.332l0.378-0.333z" />
<glyph unicode="&#xe931;" glyph-name="top" d="M756.131 576.931l-222.487 222.255c-3.864 3.812-9.174 6.166-15.034 6.166-2.363 0-4.636-0.383-6.761-1.089l0.151 0.044c-1.974 0.663-4.247 1.046-6.61 1.046-5.86 0-11.17-2.354-15.036-6.168l0.002 0.002-222.487-222.255c-3.657-4.093-5.892-9.524-5.892-15.476s2.235-11.384 5.912-15.499l-0.020 0.023c4.047-3.908 9.519-6.364 15.563-6.516l0.029-0.001c6.016 0.062 11.441 2.543 15.358 6.514l0.002 0.002 186.182 185.018v-618.589c0-12.082 9.794-21.876 21.876-21.876s21.876 9.794 21.876 21.876v0 631.156l197.585-197.585c3.92-3.974 9.344-6.454 15.348-6.516h0.012c6.074 0.152 11.545 2.608 15.6 6.523l-0.007-0.007c3.318 3.993 5.332 9.173 5.332 14.824 0 6.265-2.476 11.953-6.503 16.136l0.007-0.007z" />
<glyph unicode="&#xe932;" glyph-name="update" d="M861.091 644.422c-2.088 4.164-5.842 7.232-10.364 8.355l-0.109 0.023c-1.345 0.394-2.889 0.621-4.487 0.621-7.353 0-13.584-4.803-15.728-11.442l-0.033-0.117-27.229-77.498c-15.197 38.341-36.211 71.238-62.318 99.337l0.18-0.196c-57.882 61.547-139.843 99.878-230.757 99.878-144.070 0-265.657-96.258-303.958-227.969l-0.557-2.236c-1.862-6.516-3.491-13.265-5.12-20.015-0.238-1.066-0.374-2.29-0.374-3.546 0-8.281 5.924-15.178 13.766-16.684l0.107-0.017h3.491c0.019 0 0.041 0 0.064 0 7.541 0 13.832 5.353 15.279 12.467l0.017 0.1c11.284 51.405 34.941 96.118 67.717 132.443l-0.226-0.254c52.019 57.245 126.765 93.039 209.872 93.039 75.433 0 143.978-29.489 194.737-77.567l-0.129 0.121c32.724-30.702 57.965-68.989 72.949-112.076l0.593-1.96-94.72 33.047c-1.852 0.822-4.012 1.301-6.284 1.301s-4.432-0.479-6.385-1.341l0.101 0.040c-4.082-2.261-7.15-5.933-8.575-10.344l-0.036-0.128c-0.356-1.298-0.56-2.788-0.56-4.325 0-7.503 4.864-13.87 11.611-16.12l0.12-0.035 124.742-43.52c1.712-0.774 3.713-1.225 5.818-1.225s4.106 0.451 5.909 1.262l-0.091-0.037c4.308 2.099 7.611 5.704 9.267 10.113l0.042 0.127 43.52 124.742c0.239 1.039 0.377 2.233 0.377 3.458 0 3.017-0.832 5.84-2.279 8.251l0.040-0.073zM801.978 403.084c-5.289-1.811-9.218-6.282-10.226-11.775l-0.014-0.094c-22.049-102.148-96.778-182.677-193.714-212.643l-2.010-0.535c-24.3-7.542-52.237-11.886-81.189-11.886-123.512 0-228.559 79.060-267.294 189.334l-0.607 1.985 94.72-33.047c1.852-0.822 4.012-1.301 6.284-1.301s4.432 0.479 6.385 1.341l-0.101-0.040c4.13 2.202 7.22 5.898 8.578 10.349l0.032 0.124c0.35 1.28 0.552 2.749 0.552 4.265 0 7.457-4.871 13.776-11.604 15.949l-0.119 0.033-125.44 44.684c-1.729 0.66-3.729 1.043-5.818 1.043s-4.089-0.382-5.933-1.081l0.115 0.038c-4.318-2.191-7.617-5.867-9.267-10.342l-0.042-0.131-42.356-125.207c-0.774-1.859-1.223-4.019-1.223-6.284s0.449-4.424 1.264-6.395l-0.041 0.111c2.293-4.139 6.061-7.226 10.579-8.578l0.127-0.033c1.189-0.293 2.554-0.461 3.958-0.461 7.51 0 13.897 4.807 16.252 11.511l0.037 0.121 26.996 77.498c15.197-38.341 36.211-71.238 62.318-99.337l-0.18 0.196c58.179-62.185 140.741-100.937 232.354-100.937 24.884 0 49.1 2.859 72.338 8.266l-2.147-0.421c112.825 26.88 200.891 111.545 232.178 220.256l0.55 2.231c1.862 6.516 3.491 13.265 4.887 20.015 0.311 1.19 0.49 2.556 0.49 3.964 0 4.792-2.069 9.101-5.363 12.082l-0.014 0.012c-3.226 3.373-7.763 5.47-12.79 5.47-1.239 0-2.449-0.127-3.616-0.37l0.115 0.020z" />
<glyph unicode="&#xe933;" glyph-name="web" d="M834.095 752.407h-644.189c0 0 0 0 0 0-29.948 0-54.225-24.278-54.225-54.225 0-0.082 0-0.164 0.001-0.245v0.013-499.898c0-0.069 0-0.151 0-0.233 0-29.948 24.278-54.225 54.225-54.225 0 0 0 0 0 0h644.189c0 0 0 0 0 0 29.948 0 54.225 24.278 54.225 54.225 0 0.082 0 0.164-0.001 0.245v-0.013 499.898c0 0.069 0 0.151 0 0.233 0 29.948-24.278 54.225-54.225 54.225 0 0 0 0 0 0v0zM857.367 197.12c-0.637-12.343-10.8-22.109-23.244-22.109-0.010 0-0.020 0-0.031 0h-644.187c-12.853 0-23.273 10.42-23.273 23.273v0 351.884h690.502zM857.367 581.585h-690.502v116.364c0.637 12.343 10.8 22.109 23.244 22.109 0.010 0 0.020 0 0.031 0h643.954c12.853 0 23.273-10.42 23.273-23.273v0zM209.455 673.513c-6.481-6.864-10.523-16.092-10.705-26.262l-0.001-0.036c0-0.071-0.001-0.155-0.001-0.239 0-20.694 16.775-37.469 37.469-37.469 0.246 0 0.491 0.002 0.736 0.007l-0.037-0.001c10.131 0.242 19.231 4.468 25.828 11.166l0.005 0.005c6.495 6.941 10.537 16.248 10.705 26.498v0.033c-0.252 10.498-4.461 19.966-11.186 27.012l0.015-0.016c-6.934 6.018-16.049 9.686-26.021 9.686-10.342 0-19.762-3.945-26.839-10.412l0.031 0.028zM245.993 636.742c-2.405-2.221-5.548-3.674-9.023-3.953l-0.053-0.003c-4.064 0.257-7.747 1.704-10.754 3.992l0.049-0.035c-2.426 2.813-3.975 6.444-4.187 10.429l-0.002 0.044c0.319 3.936 1.849 7.465 4.211 10.267l-0.022-0.027c2.928 2.461 6.738 3.956 10.899 3.956 0.014 0 0.028 0 0.042 0h-0.002c0.116 0.003 0.252 0.005 0.388 0.005 3.523 0 6.736-1.327 9.167-3.508l-0.013 0.011c2.426-2.73 3.978-6.286 4.187-10.198l0.002-0.042c-0.102-4.197-1.67-8.008-4.208-10.961l0.019 0.023zM302.545 673.513c-6.325-6.933-10.266-16.136-10.472-26.257l-0.001-0.042c0.192-10.239 4.134-19.522 10.504-26.566l-0.031 0.035c7.196-6.719 16.815-10.924 27.413-11.17l0.049-0.001c10.193 0.306 19.347 4.514 26.068 11.174l-0.003-0.003c6.667 6.932 10.772 16.368 10.772 26.764s-4.106 19.832-10.784 26.776l0.012-0.013c-6.949 6.306-16.218 10.166-26.388 10.166-10.531 0-20.095-4.139-27.155-10.878l0.015 0.014zM339.316 636.742c-2.48-2.236-5.703-3.691-9.258-3.953l-0.051-0.003c-4.064 0.257-7.747 1.704-10.754 3.992l0.049-0.035c-2.274 2.869-3.727 6.482-3.954 10.423l-0.002 0.050c0.231 3.914 1.686 7.45 3.982 10.273l-0.026-0.033c2.356 2.178 5.519 3.514 8.993 3.514 0.275 0 0.548-0.008 0.818-0.025l-0.037 0.002c0.119 0.003 0.26 0.005 0.401 0.005 3.744 0 7.179-1.319 9.867-3.518l-0.028 0.022c2.271-2.79 3.725-6.326 3.954-10.191l0.002-0.049c-0.578-4.111-2.424-7.712-5.124-10.476l0.004 0.004zM392.844 673.513c-6.481-6.864-10.523-16.092-10.705-26.262l-0.001-0.036c0.168-10.283 4.21-19.59 10.726-26.553l-0.021 0.022c7.152-6.793 16.799-11.019 27.432-11.171h0.030c10.131 0.242 19.231 4.468 25.828 11.166l0.005 0.005c6.774 6.884 10.956 16.335 10.956 26.764s-4.182 19.88-10.961 26.769l0.005-0.005c-6.951 6.192-16.166 9.975-26.264 9.975-10.463 0-19.977-4.061-27.052-10.694l0.022 0.020zM429.382 636.742c-2.421-2.192-5.555-3.637-9.016-3.952l-0.061-0.004c-4.064 0.257-7.747 1.704-10.754 3.992l0.049-0.035c-2.426 2.813-3.975 6.444-4.187 10.429l-0.002 0.044c0.202 3.697 1.481 7.061 3.526 9.824l-0.035-0.049c2.928 2.461 6.738 3.956 10.899 3.956 0.014 0 0.028 0 0.042 0h-0.002c0.064 0.001 0.14 0.002 0.216 0.002 3.577 0 6.846-1.323 9.342-3.507l-0.017 0.014c2.426-2.73 3.978-6.286 4.187-10.198l0.002-0.042c-0.214-4.029-1.763-7.66-4.208-10.495l0.019 0.023z" />
<glyph unicode="&#xe934;" glyph-name="whatsapp" d="M515.2 896c-246.4 0-448-198.4-448-444.8 0-80 22.4-156.8 60.8-220.8-6.4-16-64-230.4-64-230.4s227.2 60.8 233.6 60.8c64-35.2 137.6-57.6 217.6-57.6 246.4 0 444.8 198.4 444.8 444.8 0 249.6-201.6 448-444.8 448zM515.2 41.6c-80 0-153.6 22.4-217.6 60.8-19.2-3.2-182.4-51.2-182.4-51.2s44.8 163.2 51.2 182.4c-38.4 64-64 137.6-64 217.6 0 224 182.4 409.6 409.6 409.6s409.6-182.4 409.6-409.6c3.2-224-182.4-409.6-406.4-409.6zM742.4 342.4c-3.2 3.2-9.6 6.4-22.4 12.8-9.6 6.4-67.2 32-76.8 35.2s-19.2 6.4-25.6-6.4c-6.4-9.6-28.8-35.2-35.2-44.8-6.4-6.4-12.8-9.6-25.6-3.2-9.6 6.4-48 16-89.6 54.4-32 28.8-54.4 67.2-60.8 76.8s0 16 6.4 22.4c6.4 6.4 9.6 12.8 16 19.2s6.4 9.6 9.6 19.2c3.2 6.4 3.2 12.8 0 19.2s-25.6 60.8-35.2 83.2c-9.6 22.4-19.2 19.2-25.6 19.2s-12.8 0-22.4 0c-6.4 0-19.2-3.2-28.8-12.8s-38.4-38.4-38.4-92.8c0-54.4 41.6-108.8 44.8-115.2 6.4-6.4 80-121.6 192-169.6 25.6-12.8 48-19.2 64-22.4 25.6-9.6 51.2-6.4 70.4-3.2 22.4 3.2 67.2 25.6 76.8 54.4 9.6 25.6 9.6 48 6.4 54.4z" />
<glyph unicode="&#xe935;" glyph-name="wishlist" d="M937.6 681.6c-25.6 54.4-67.2 96-121.6 124.8-57.6 25.6-118.4 32-176 16s-96-54.4-128-92.8c0 0 0 0 0 0v0c0 0 0 0-3.2 3.2s-6.4 6.4-9.6 12.8-16 19.2-25.6 25.6c-57.6 48-121.6 67.2-198.4 57.6-35.2-6.4-67.2-22.4-105.6-48-112-76.8-124.8-204.8-86.4-294.4 12.8-28.8 28.8-57.6 51.2-86.4 38.4-54.4 86.4-105.6 147.2-166.4 54.4-54.4 108.8-108.8 163.2-163.2l9.6-9.6c6.4-6.4 12.8-12.8 22.4-19.2s22.4-9.6 35.2-9.6v0c0 0 3.2 0 3.2 0 19.2 0 38.4 9.6 54.4 25.6 76.8 73.6 160 153.6 236.8 240 35.2 41.6 73.6 83.2 105.6 134.4 28.8 44.8 44.8 96 44.8 150.4 3.2 35.2-3.2 67.2-19.2 99.2zM886.4 457.6c-28.8-48-67.2-89.6-96-124.8-67.2-76.8-147.2-153.6-246.4-249.6-9.6-6.4-19.2-16-28.8-16h-3.2c-9.6 0-19.2 3.2-25.6 9.6-64 64-134.4 134.4-204.8 204.8-48 51.2-92.8 102.4-131.2 153.6-25.6 35.2-38.4 67.2-44.8 96-16 89.6 12.8 160 80 211.2 32 25.6 67.2 41.6 102.4 44.8 9.6 0 22.4 3.2 32 3.2 51.2 0 96-19.2 134.4-54.4 6.4-6.4 16-16 22.4-25.6l6.4-9.6c3.2 3.2 12.8-9.6 28.8-9.6 3.2 0 6.4 0 9.6 0 6.4 3.2 12.8 6.4 19.2 12.8s12.8 12.8 19.2 19.2l6.4 9.6c41.6 44.8 92.8 64 153.6 60.8 73.6-6.4 131.2-41.6 172.8-102.4 19.2-32 32-70.4 32-112s-12.8-80-38.4-121.6zM358.4 691.2c-3.2 0-6.4 3.2-9.6 3.2-9.6 3.2-19.2 6.4-28.8 6.4-70.4 6.4-131.2-51.2-134.4-124.8 0-25.6 6.4-48 19.2-67.2 3.2-3.2 9.6-9.6 16-9.6v0c6.4 0 12.8 3.2 16 6.4s6.4 9.6 0 22.4c-9.6 19.2-12.8 38.4-12.8 60.8 3.2 38.4 38.4 70.4 76.8 73.6 16 0 32 0 44.8-6.4 3.2 0 6.4-3.2 9.6-3.2 6.4 0 9.6 3.2 12.8 6.4s6.4 9.6 3.2 12.8-3.2 16-12.8 19.2z" />
<glyph unicode="&#xe936;" glyph-name="clock" d="M715.636 453.827c10.182 0 18.444-8.262 18.444-18.443 0-10.152-8.262-18.472-18.444-18.472h-201.716c-10.153 0-18.444 8.32-18.444 18.472v302.534c0 10.152 8.291 18.414 18.444 18.414 10.182 0 18.444-8.262 18.444-18.414v-284.091h183.273zM512 100.915c191.389 0 347.113 155.718 347.113 347.1s-155.724 347.070-347.113 347.070c-191.389 0-347.113-155.689-347.113-347.070s155.724-347.1 347.113-347.1zM512 832c211.724 0 384-172.27 384-383.985 0-211.745-172.276-384.015-384-384.015s-384 172.27-384 384.015c0 211.716 172.276 383.985 384 383.985z" />
<glyph unicode="&#xe937;" glyph-name="cuenta-ahorros" horiz-adv-x="1062" d="M858.887 396.445c-8.709 0-15.767-7.21-15.767-16.097 0-11.275-8.98-20.44-20.022-20.44-11.040 0-20.022 9.171-20.022 20.44 0 8.896-7.058 16.097-15.767 16.097-8.707 0-15.765-7.21-15.765-16.097 0-29.025 23.126-52.638 51.554-52.638s51.556 23.616 51.556 52.638c0 8.898-7.058 16.097-15.767 16.097zM89.123 429.301c-1.449 2.937 1.972 8.105 4.143 10.927 3.439 4.466 6.604 5.378 8.999 5.378 0.504 0 0.977-0.039 1.412-0.096 6.44-0.842 15.459-7.812 20.242-19.5 1.128-2.754 2.586-7.307 2.928-12.992-19.39 3.953-34.452 9.65-37.717 16.281zM841.614 582.225c-5.39-45.337-19.852-84.119-34.379-92.209-16.513-9.198-54.637-10.979-83.268 9.617-28.659 20.616-38.197 57.698-27.587 107.223v0.002c1.068 4.973 4.662 9.278 9.611 11.507 70.116 31.565 110.536 41.887 125.554 41.887 2.267 0 3.956-0.235 5.076-0.667 4.51-4.726 10.427-31.609 4.987-77.362zM975.374 418.522l-39.417 12.42c-5.049 1.594-9.026 5.554-10.639 10.603-8.309 25.978-20.841 50.363-37.261 72.49-7.483 10.083-15.801 19.713-24.895 28.88 5.817 25.089 8.976 53.483 8.566 78.015-0.587 35.096-7.718 55.68-21.799 62.928-7.583 3.913-30.665 15.796-155.592-40.448-2.959-1.331-5.719-2.972-8.278-4.847-8.424 2.228-17.029 4.284-25.693 6.132-1.043 0.223-2.116 0.423-3.167 0.64 10.121 21.751 16.034 45.37 17.144 69.759 0.346 7.602-5.638 14.039-13.363 14.376-7.708 0.377-14.275-5.539-14.618-13.141-1.826-40.094-18.738-77.825-47.621-106.231-17.254-16.97-37.462-29.301-58.993-37.065-37.346 5.153-75.385 5.153-112.725 0-21.536 7.763-41.739 20.089-58.993 37.065-30.811 30.303-47.785 70.596-47.785 113.455 0 42.862 16.969 83.152 47.785 113.455 30.811 30.305 71.785 46.995 115.358 46.995s84.548-16.69 115.358-46.995c12.382-12.178 22.615-26.074 30.411-41.304 3.479-6.796 11.903-9.533 18.811-6.11 6.91 3.42 9.69 11.702 6.211 18.497-9.138 17.855-21.129 34.134-35.623 48.393-36.103 35.507-84.107 55.063-135.163 55.063s-99.060-19.557-135.163-55.063c-36.103-35.507-55.987-82.719-55.987-132.935s19.884-97.424 55.987-132.935c10.412-10.241 21.745-19.049 33.727-26.43 0.004 0 0.008 0.002 0.012 0.002-8.709-2.228-17.352-4.725-25.895-7.534-7.333-2.41-11.293-10.216-8.841-17.43s10.389-11.105 17.72-8.697c76.376 25.113 160.504 25.113 236.884 0 1.476-0.486 2.971-0.715 4.439-0.715 5.859 0 11.322 3.645 13.281 9.413 2.455 7.217-1.505 15.020-8.841 17.43-8.549 2.812-17.188 5.308-25.893 7.534 0.004 0 0.006-0.002 0.010-0.002 11.984 7.381 23.315 16.189 33.727 26.43 9.213 9.063 17.348 18.957 24.408 29.475 3.858-0.736 7.691-1.511 11.468-2.316 5.028-1.072 10.038-2.23 14.997-3.44-0.154-0.601-0.318-1.194-0.444-1.805-6.829-31.877-6.388-60.073 1.316-83.796 6.927-21.322 19.421-38.596 37.138-51.345 20.885-15.026 46.097-21.516 68.937-21.516 17.188 0 33.032 3.681 44.669 10.163 13.165 7.333 24.195 22.785 32.924 45.985 4.033-4.632 7.858-9.376 11.464-14.233 14.618-19.692 25.774-41.4 33.167-64.51 4.339-13.573 15.112-24.255 28.818-28.574l39.417-12.418c10.346-3.26 17.293-12.622 17.293-23.302v-64.281c0-10.684-6.948-20.042-17.293-23.302l-63.507-20.007c-10.162-3.205-18.757-10.069-24.208-19.337-24.955-42.406-64.181-77.502-116.605-104.312-6.058-3.101-10.25-8.642-11.51-15.214l-20.342-105.927c-0.56-2.921-3.159-5.035-6.18-5.035h-66.134c-3.021 0-5.619 2.116-6.178 5.035l-11.27 58.54c-2.219 11.516-13.2 19.167-25.022 17.409-28.491-4.237-57.84-6.384-87.244-6.384-21.876 0-43.467 1.196-64.188 3.565-11.453 1.298-22.126-6.386-24.266-17.509l-10.704-55.623c-0.56-2.921-3.159-5.035-6.18-5.035h-66.134c-3.021 0-5.619 2.116-6.188 5.077l-19.584 100.044c-1.26 6.447-5.376 11.925-11.299 15.038-89.362 46.921-136.595 125.304-136.595 226.675 0 51.217 11.391 96.51 33.865 134.621 20.966 35.565 51.593 64.966 91.025 87.398 6.696 3.808 8.982 12.236 5.111 18.82-3.871 6.582-12.436 8.832-19.136 5.024-76.457-43.502-122.575-110.608-135.271-195.845v0.002c-1.349 0.119-2.696 0.235-4.039 0.374 0.246 9.194-1.447 18.474-5.13 27.482-8.126 19.862-24.816 34.201-42.521 36.525-13.952 1.836-27.231-3.988-36.446-15.966-13.362-17.362-11.183-31.104-7.004-39.575 7.052-14.292 25.188-24.406 55.275-30.761-0.829-1.22-1.736-2.443-2.734-3.673-17.777-21.931-38.724-26.777-52.322-27.233-7.964-0.262-14.339-6.551-14.339-14.388v-0.069c0-7.729 6.2-14.030 14.054-14.384 1.008-0.045 2.058-0.072 3.152-0.072 17.208 0 44.831 6.241 71.365 38.968 4.191 5.165 7.604 10.613 10.229 16.244 2.64-0.292 5.184-0.548 7.616-0.766 0 0.006 0 0.010 0.002 0.016-0.479-7.463-0.741-15.042-0.741-22.748 0-57.356 13.902-108.492 41.318-152.002 25.28-40.113 61.477-72.956 107.615-97.655l19.042-97.26c3.061-15.913 17.237-27.46 33.704-27.46h66.134c16.467 0 30.638 11.551 33.704 27.46l9.679 50.292c20.102-2.095 40.917-3.158 61.958-3.158 28.87 0 57.708 1.979 85.81 5.884l10.204-53.023c3.063-15.913 17.239-27.458 33.704-27.458h66.134c16.467 0 30.638 11.551 33.706 27.466l19.803 103.131c55.953 29.097 98.121 67.323 125.371 113.639 1.963 3.336 4.989 5.787 8.514 6.899l63.507 20.007c21.986 6.927 36.757 26.834 36.757 49.54v64.281c0 22.701-14.77 42.61-36.757 49.536z" />
<glyph unicode="&#xe938;" glyph-name="empresa" horiz-adv-x="670" d="M429.791 448c-7.443 0-13.436 7.302-13.436 16.301s6.006 16.301 13.436 16.301h73.446c7.443 0 13.473-7.302 13.473-16.301s-6.031-16.301-13.473-16.301h-73.446zM429.791 350.161c-7.443 0-13.436 7.302-13.436 16.301s6.006 16.301 13.436 16.301h73.446c7.443 0 13.473-7.302 13.473-16.301s-6.031-16.301-13.473-16.301h-73.446zM299.321 350.161c-7.443 0-13.436 7.302-13.436 16.301s6.006 16.301 13.436 16.301h73.446c7.443 0 13.473-7.302 13.473-16.301s-6.031-16.301-13.473-16.301h-73.446zM299.321 448c-7.443 0-13.436 7.302-13.436 16.301s6.006 16.301 13.436 16.301h73.446c7.443 0 13.473-7.302 13.473-16.301s-6.031-16.301-13.473-16.301h-73.446zM168.87 350.161c-7.443 0-13.436 7.302-13.436 16.301s6.006 16.301 13.436 16.301h73.446c7.443 0 13.473-7.302 13.473-16.301s-6.031-16.301-13.473-16.301h-73.446zM168.87 448c-7.443 0-13.436 7.302-13.436 16.301s6.006 16.301 13.436 16.301h73.446c7.443 0 13.473-7.302 13.473-16.301s-6.031-16.301-13.473-16.301h-73.446zM429.791 545.848c-7.443 0-13.436 7.302-13.436 16.301s6.006 16.301 13.436 16.301h73.446c7.443 0 13.473-7.302 13.473-16.301s-6.031-16.301-13.473-16.301h-73.446zM299.321 545.848c-7.443 0-13.436 7.302-13.436 16.301s6.006 16.301 13.436 16.301h73.446c7.443 0 13.473-7.302 13.473-16.301s-6.031-16.301-13.473-16.301h-73.446zM168.87 545.848c-7.443 0-13.436 7.302-13.436 16.301s6.006 16.301 13.436 16.301h73.446c7.443 0 13.473-7.302 13.473-16.301s-6.031-16.301-13.473-16.301h-73.446zM429.791 643.697c-7.443 0-13.436 7.302-13.436 16.301s6.006 16.301 13.436 16.301h73.446c7.443 0 13.473-7.302 13.473-16.301s-6.031-16.301-13.473-16.301h-73.446zM299.321 643.697c-7.443 0-13.436 7.302-13.436 16.301s6.006 16.301 13.436 16.301h73.446c7.443 0 13.473-7.302 13.473-16.301s-6.031-16.301-13.473-16.301h-73.446zM168.87 643.697c-7.443 0-13.436 7.302-13.436 16.301s6.006 16.301 13.436 16.301h73.446c7.443 0 13.473-7.302 13.473-16.301s-6.031-16.301-13.473-16.301h-73.446zM611.723 747.585c0 8.056-6.387 14.594-14.269 14.594h-56.88v94.064c0 8.665-6.949 15.768-15.409 15.768h-381.702c-8.307-0.186-14.884-7.235-14.729-15.768v-94.064h-56.749c-3.814 0.158-7.54-1.334-10.259-4.095s-4.253-6.563-4.121-10.498v-708.355c-0.131-4.002 1.336-7.897 4.033-10.749 2.73-2.889 6.444-4.479 10.362-4.479l525.666 0.226c3.879-0.027 7.628 1.584 10.325 4.479 2.73 2.852 4.187 6.758 4.056 10.749l-0.307 708.129zM156.733 762.071v78.997h351.958v-78.997h-351.958zM239.074 54.733v194.641h177.852v-194.641h-177.852zM446.89 54.733v209.735c0 8.598-6.705 15.568-15.037 15.727h-208.276c-3.945-0.091-7.693-1.81-10.415-4.796-2.696-2.918-4.121-6.88-4.002-10.945v-209.735h-123.559v676.473h494.212v-270.557c0 0-0.027-405.916-0.284-405.916h-132.634z" />
<glyph unicode="&#xe939;" glyph-name="star" d="M512 269c2.685 0 5.336-0.845 7.607-2.547l187.988-138.615-67.374 231.113c-1.581 5.439 0.247 11.333 4.6 14.783l183.94 145.53-229.987 4.019c-5.537 0.109-10.413 3.827-12.207 9.263l-74.584 228.285-74.584-228.285c-1.765-5.445-6.687-9.171-12.207-9.263l-229.987-4.019 183.94-145.53c4.341-3.421 6.181-9.355 4.6-14.783l-67.374-231.113 187.988 138.615c2.271 1.673 4.939 2.547 7.607 2.547zM731.315 79.965c-2.639 0-5.307 0.799-7.607 2.547l-211.725 156.11-211.725-156.11c-4.6-3.375-10.689-3.356-15.273 0.017-4.571 3.421-6.549 9.462-4.893 15.035l75.872 260.209-206.803 163.608c-4.479 3.513-6.273 9.585-4.525 15.105 1.719 5.491 6.687 9.263 12.253 9.399l258.585 4.525 84.014 257.223c3.605 11.103 21.269 11.103 24.903 0l84.014-257.223 258.585-4.525c5.583-0.109 10.551-3.881 12.253-9.399 1.765-5.537-0.063-11.609-4.525-15.105l-206.803-163.608 75.872-260.209c1.627-5.572-0.339-11.609-4.893-15.035-2.271-1.719-4.968-2.547-7.653-2.547z" />
<glyph unicode="&#xe93a;" glyph-name="sun" d="M677.76 613.76c-42.459 42.436-101 68.785-165.696 69.12h-0.064c-0.322 0.002-0.703 0.003-1.085 0.003-64.477 0-122.776-26.448-164.641-69.088l-0.034-0.035c-42.312-42.472-68.471-101.062-68.471-165.761 0-129.492 104.79-234.51 234.196-234.879h0.035c0.322-0.002 0.703-0.003 1.085-0.003 64.477 0 122.776 26.448 164.641 69.088l0.034 0.035c42.436 42.459 68.785 101 69.12 165.696v0.064c0.002 0.322 0.003 0.703 0.003 1.085 0 64.477-26.448 122.776-69.088 164.641l-0.035 0.034zM649.92 310.080c-35.577-35.986-84.946-58.273-139.52-58.273-108.336 0-196.16 87.824-196.16 196.16s87.824 196.16 196.16 196.16c108.325 0 196.141-87.805 196.16-196.126v-0.002c0.002-0.322 0.003-0.704 0.003-1.085 0-53.431-21.645-101.806-56.644-136.836l0.001 0.001zM512 734.4c12.194 0 22.080 9.886 22.080 22.080v117.44c0 12.194-9.886 22.080-22.080 22.080s-22.080-9.886-22.080-22.080v0-117.44c0-12.194 9.886-22.080 22.080-22.080v0zM512 160c-12.194 0-22.080-9.886-22.080-22.080v-117.44c0-12.194 9.886-22.080 22.080-22.080s22.080 9.886 22.080 22.080v0 119.040c-0.86 11.486-10.391 20.48-22.022 20.48-0.020 0-0.041 0-0.061 0h0.003zM937.92 470.080h-117.44c-12.194 0-22.080-9.886-22.080-22.080s9.886-22.080 22.080-22.080v0h117.44c12.194 0 22.080 9.886 22.080 22.080s-9.886 22.080-22.080 22.080v0zM225.6 448c0 12.194-9.886 22.080-22.080 22.080h-117.44c-12.194 0-22.080-9.886-22.080-22.080s9.886-22.080 22.080-22.080v0h117.44c12.194 0 22.080 9.886 22.080 22.080v0zM745.6 245.44c-4.095 4.095-9.752 6.627-16 6.627-12.497 0-22.627-10.131-22.627-22.627 0-6.248 2.533-11.905 6.627-16l83.2-83.2c4.095-4.095 9.752-6.627 16-6.627 12.497 0 22.627 10.131 22.627 22.627 0 6.248-2.533 11.905-6.627 16v0zM278.4 650.56c4.095-4.095 9.752-6.627 16-6.627 12.497 0 22.627 10.131 22.627 22.627 0 6.248-2.533 11.905-6.627 16v0l-84.16 82.24c-4.095 4.095-9.752 6.627-16 6.627-12.497 0-22.627-10.131-22.627-22.627 0-6.248 2.533-11.905 6.627-16v0zM278.4 245.44l-83.2-83.2c-4.095-4.095-6.627-9.752-6.627-16 0-12.497 10.131-22.627 22.627-22.627 6.248 0 11.905 2.533 16 6.627l83.2 83.2c4.095 4.095 6.627 9.752 6.627 16 0 12.497-10.131 22.627-22.627 22.627-6.248 0-11.905-2.533-16-6.627v0zM745.6 650.56l83.2 83.2c4.095 4.095 6.627 9.752 6.627 16 0 12.497-10.131 22.627-22.627 22.627-6.248 0-11.905-2.533-16-6.627l-83.2-83.2c-4.095-4.095-6.627-9.752-6.627-16 0-12.497 10.131-22.627 22.627-22.627 6.248 0 11.905 2.533 16 6.627v0z" />
<glyph unicode="&#xe93b;" glyph-name="moon" d="M817.6 210.24c-27.578-8.706-59.293-13.722-92.18-13.722-173.536 0-314.45 139.672-316.458 312.732l-0.002 0.19c-0.003 0.495-0.004 1.081-0.004 1.667 0 122.192 68.487 228.387 169.169 282.295l1.715 0.839c8.358 4.585 13.929 13.324 13.929 23.364 0 14.503-11.624 26.291-26.064 26.555h-0.025c-0.279 0.001-0.609 0.001-0.939 0.001-217.556 0-393.92-176.364-393.92-393.92 0-7.768 0.225-15.483 0.668-23.139l-0.049 1.058c4.705-109.742 54.172-207.075 130.481-274.852l0.399-0.348c70.276-62.17 163.15-100.217 264.905-100.48h23.735c60.354 3.982 115.978 20.812 165.28 47.761l-2.080-1.041c33.68 18.899 62.63 41.222 87.927 67.125l0.073 0.075c4.462 4.74 7.204 11.144 7.204 18.188 0 14.669-11.891 26.56-26.56 26.56-2.448 0-4.82-0.331-7.071-0.952l0.187 0.044zM743.36 122.56c-44.059-24.258-95.999-39.952-151.248-43.465l-1.072-0.055c-6.781-0.436-14.704-0.684-22.685-0.684-95.348 0-182.421 35.43-248.772 93.843l0.416-0.36c-71.16 63.494-117.076 153.976-121.573 255.227l-0.027 0.773c-0.462 6.894-0.725 14.943-0.725 23.055 0 202.534 164.186 366.72 366.72 366.72 1.155 0 2.309-0.005 3.462-0.016l-0.176 0.001c-110.145-59.678-183.687-174.394-183.687-306.286 0-0.771 0.003-1.542 0.008-2.312l-0.001 0.118c2.354-187.477 154.882-338.55 342.695-338.55 35.041 0 68.855 5.259 100.693 15.031l-2.428-0.641c-23.508-24.151-50.355-44.881-79.836-61.487l-1.764-0.913z" />
<glyph unicode="&#xe93c;" glyph-name="bulb" d="M730.56 774.080c-55.243 57.158-132.595 92.646-218.236 92.646-60.721 0-117.276-17.84-164.708-48.565l1.184 0.719c-21.484-13.648-40.071-29.082-56.499-46.568l-0.141-0.152c-52.107-54.428-84.184-128.4-84.184-209.864 0-49.476 11.832-96.188 32.82-137.462l-0.796 1.726c21.823-42.644 51.7-78.25 87.904-106.018l0.736-0.542c19.503-14.496 32.003-37.468 32.003-63.359 0-0.225-0.001-0.451-0.003-0.676v0.035-137.28c0.182-50.407 41.087-91.2 91.519-91.2 0 0 0 0 0.001 0h130.56c49.545 1.065 89.301 41.48 89.301 91.18 0 0.682-0.007 1.362-0.022 2.041l0.002-0.101v143.68c0.535 25.096 12.927 47.19 31.781 60.967l0.219 0.153c69.337 56.239 113.29 141.433 113.29 236.893 0 82.026-32.453 156.472-85.219 211.2l0.089-0.093zM640 120.64c0-33.049-26.791-59.84-59.84-59.84v0h-129.6c-33.049 0-59.84 26.791-59.84 59.84v0 43.2h249.28zM640 195.52h-249.28v28.48h249.28zM681.6 350.080c-25.433-20.161-41.6-51.053-41.6-85.722 0-0.013 0-0.027 0-0.040v0.002-8.32h-108.48v170.88l100.48 100.48c2.809 2.833 4.545 6.734 4.545 11.040s-1.736 8.207-4.546 11.041l0.001-0.001c-2.884 2.828-6.838 4.574-11.2 4.574s-8.316-1.746-11.203-4.576l-93.757-93.757-93.44 93.44c-2.884 2.828-6.838 4.574-11.2 4.574s-8.316-1.746-11.203-4.576l0.003 0.003c-2.809-2.833-4.545-6.734-4.545-11.040s1.736-8.207 4.546-11.041l100.159-100.159v-170.88h-109.44c-0.077 35.484-16.882 67.026-42.945 87.17l-0.255 0.19c-65.745 50.181-107.737 128.586-107.737 216.799 0 73.136 28.865 139.531 75.824 188.412l-0.087-0.091c15.031 15.58 31.7 29.403 49.783 41.246l1.097 0.674c41.464 26.844 92.148 42.802 146.56 42.802 150.398 0 272.32-121.922 272.32-272.32 0-0.085 0-0.17 0-0.256v0.013c-0.809-85.094-40.522-160.75-102.182-210.143l-0.538-0.417z" />
<glyph unicode="&#xe93d;" glyph-name="messenger" d="M832 774.4c0 0-22.4 22.4-64 48 0 0 0 0 0 0-76.8 48-163.2 73.6-256 73.6-118.4 0-230.4-41.6-316.8-118.4-83.2-76.8-131.2-176-131.2-284.8 0-70.4 19.2-137.6 57.6-198.4 35.2-54.4 83.2-102.4 144-137.6v-144c0-12.8 16-19.2 25.6-9.6l108.8 99.2c38.4-9.6 73.6-12.8 115.2-12.8 118.4 0 230.4 41.6 316.8 118.4s131.2 176 131.2 284.8c-3.2 105.6-48 208-131.2 281.6zM512 118.4c-38.4 0-76.8 3.2-115.2 12.8-6.4 0-9.6 0-12.8-3.2l-89.6-83.2v118.4c0 6.4-3.2 9.6-6.4 12.8-121.6 70.4-195.2 188.8-195.2 316.8 0 208 188.8 374.4 419.2 374.4 86.4 0 169.6-22.4 240-67.2 25.6-12.8 60.8-44.8 60.8-44.8 76.8-70.4 118.4-163.2 118.4-262.4 0-208-188.8-374.4-419.2-374.4zM848 604.8c-3.2 6.4-9.6 6.4-16 6.4l-256-102.4-115.2 99.2c-6.4 6.4-16 3.2-19.2 0l-41.6-44.8-51.2-57.6-156.8-166.4c-3.2-3.2-6.4-12.8 0-16 3.2-6.4 12.8-6.4 19.2-6.4l236.8 99.2 118.4-99.2c6.4-6.4 16-3.2 19.2 0l262.4 268.8c3.2 6.4 6.4 16 0 19.2zM572.8 348.8l-112 96c-6.4 3.2-12.8 3.2-16 0l-188.8-76.8 112 121.6 51.2 57.6 32 35.2 112-96c3.2-3.2 9.6-3.2 16-3.2l201.6 80-208-214.4z" />
<glyph unicode="&#xe93e;" glyph-name="quickorder" d="M783.36 847.040h-124.16v-32h111.68c0.001 0 0.002 0 0.003 0 33.756 0 61.12-27.364 61.12-61.12 0-0.225-0.001-0.45-0.004-0.674v0.034-640c-0.181-33.506-27.294-60.619-60.783-60.8h-518.097c-0.004 0-0.009 0-0.013 0-33.756 0-61.12 27.364-61.12 61.12 0 0.45 0.005 0.899 0.015 1.347l-0.001-0.067v638.4c0.181 33.506 27.294 60.619 60.783 60.8h112.017v32h-124.16c-41.656-0.174-75.442-33.623-76.159-75.133l-0.001-0.067v-674.88c0.181-41.989 34.171-75.979 76.143-76.16h544.017c41.439 0.894 74.71 34.614 74.88 76.144v672.016c0.027 0.763 0.043 1.66 0.043 2.561 0 42.141-34.083 76.322-76.188 76.479h-0.015zM439.36 796.8h145.28c21.561 0 39.040 17.479 39.040 39.040s-17.479 39.040-39.040 39.040v0h-145.28c-21.561 0-39.040-17.479-39.040-39.040s17.479-39.040 39.040-39.040v0zM409.6 128l221.12 359.36h-114.24l64 154.56h-110.4l-92.8-233.6h120.32zM411.52 431.040l73.6 192h65.6l-69.12-157.12h106.56l-101.12-173.44 40.96 139.84z" />
<glyph unicode="&#xe93f;" glyph-name="truck" d="M771.2 611.2h-54.4l19.2 198.4c0 0 0 3.2 0 3.2 0 6.4-3.2 16-12.8 19.2 0 0 0 0 0 0v0c0 0 0 0-3.2 0 0 0 0 0-3.2 0 0 0-3.2 0-3.2 0s0 0-3.2 0h-480c-3.2 0-12.8-6.4-16-16 0 0 0-3.2 0-3.2l-9.6-89.6h-121.6c-9.6 0-19.2-9.6-19.2-22.4s9.6-19.2 19.2-19.2h118.4l-16-163.2h-64c-9.6 0-19.2-9.6-19.2-19.2s9.6-19.2 19.2-19.2h60.8l-9.6-121.6-12.8-179.2c0 0 0 0 0 0v0c0 0 0 0 0-3.2 0 0 0 0 0 0s0 0 0 0 0 0 0 0 0 0 0 0 0 0 0 0 0 0 0 0 0 0 0 0c0-3.2 3.2-6.4 3.2-6.4v0c0 0 0 0 0 0s3.2-3.2 6.4-3.2c0 0 0 0 0 0s0 0 0 0 0 0 0 0 0 0 0 0 0 0 3.2 0h60.8c9.6-51.2 57.6-92.8 112-92.8s102.4 38.4 112 92.8h182.4c9.6-51.2 57.6-92.8 112-92.8s102.4 38.4 112 92.8h60.8c0 0 3.2 0 3.2 0s0 0 0 0 3.2 0 3.2 0c0 0 3.2 0 3.2 0s0 0 0 0 0 0 0 0v0c0 0 0 0 0 0s0 0 0 0 0 0 0 0 0 0 0 3.2c0 0 0 0 0 3.2 0 0 0 0 0 0s0 0 0 0 0 3.2 0 3.2c0 6.4 12.8 128 16 182.4v32c0 19.2 3.2 32 3.2 38.4 6.4 99.2-80 182.4-182.4 182.4zM713.6 572.8h48l-6.4-73.6h-48l6.4 73.6zM220.8 480h108.8c9.6 0 19.2 9.6 19.2 19.2s-9.6 19.2-19.2 19.2h-102.4l16 163.2h124.8c9.6 0 19.2 9.6 19.2 19.2s-9.6 19.2-19.2 19.2h-121.6l6.4 70.4h438.4l-28.8-310.4-6.4-105.6h-441.6l6.4 105.6zM688 345.6v0c0 0 0 0 0 0v0zM684.8 345.6v0 0 0zM348.8 102.4c-41.6 0-73.6 32-73.6 73.6 0 38.4 32 73.6 73.6 73.6s73.6-32 73.6-73.6c0-41.6-32-73.6-73.6-73.6zM752 102.4c-41.6 0-73.6 32-73.6 73.6 0 38.4 32 73.6 73.6 73.6s73.6-32 73.6-73.6c0-41.6-32-73.6-73.6-73.6zM908.8 278.4c-3.2-35.2-3.2-67.2-6.4-83.2h-38.4c-9.6 51.2-57.6 92.8-112 92.8s-102.4-38.4-112-92.8h-179.2c-9.6 51.2-57.6 92.8-112 92.8s-102.4-38.4-112-92.8h-38.4l9.6 140.8h464c0 0 3.2 0 3.2 0s0 0 3.2 0c0 0 3.2 0 3.2 0s3.2 0 3.2 0c0 0 0 0 3.2 0s0 0 0 0v0c0 0 0 0 3.2 3.2 0 0 0 0 0 0s0 0 0 0 0 3.2 0 3.2c0 0 0 0 0 3.2 0 0 0 0 0 0s0 3.2 0 3.2l6.4 105.6h67.2c41.6 0 57.6-19.2 80-44.8 16-19.2 35.2-38.4 67.2-48 3.2-12.8 0-48-3.2-83.2zM921.6 409.6c-16 6.4-25.6 19.2-41.6 32l-3.2 3.2c-19.2 19.2-41.6 44.8-83.2 51.2l6.4 70.4c70.4-12.8 121.6-73.6 121.6-144 0 0 0-6.4 0-12.8z" />
<glyph unicode="&#xe940;" glyph-name="order" horiz-adv-x="1071" d="M895.437 337.983c-8.921 8.921-23.789 8.921-29.736 0l-83.258-86.232v451.965c0 11.895-8.921 20.815-20.815 20.815s-20.815-8.921-20.815-20.815v-451.965l-83.258 86.232c-5.947 5.947-11.895 5.947-17.842 5.947 0 0 0 0 0 0-5.947 0-11.895-2.974-14.868-5.947-8.921-8.921-8.921-23.789 0-29.736l118.938-124.885c2.974-2.974 8.921-5.947 14.868-5.947s11.895 2.974 14.868 5.947l118.938 124.885c8.921 8.921 8.921 20.815 2.974 29.736zM505.914 248.778h-178.406c-11.895 0-20.815-8.921-20.815-20.815s8.921-20.815 20.815-20.815h178.406c11.895 0 20.815 8.921 20.815 20.815s-8.921 20.815-20.815 20.815zM505.914 471.789h-237.879c-11.895 0-20.815-8.921-20.815-20.815s8.921-20.815 20.815-20.815h237.879c11.895 0 20.815 8.921 20.815 20.815s-8.921 20.815-20.815 20.815zM505.914 694.796h-297.348c-11.895 0-20.815-8.921-20.815-20.815s8.921-20.815 20.815-20.815h297.348c11.895 0 20.815 8.921 20.815 20.815s-8.921 20.815-20.815 20.815z" />
<glyph unicode="&#xe941;" glyph-name="empty-bag" d="M572.8 233.6c3.2-3.2 9.6-6.4 12.8-6.4 6.4 0 9.6 3.2 12.8 6.4 6.4 6.4 6.4 19.2 0 25.6l-60.8 60.8 57.6 57.6c6.4 6.4 6.4 19.2 0 25.6s-19.2 6.4-25.6 0v0l-57.6-54.4-57.6 57.6c-6.4 6.4-19.2 6.4-25.6 0s-6.4-19.2 0-25.6v0l57.6-57.6-60.8-57.6c-6.4-6.4-6.4-19.2 0-25.6s19.2-6.4 25.6 0l60.8 60.8 60.8-67.2zM857.6 659.2h-153.6v41.6c0 108.8-86.4 195.2-195.2 195.2s-195.2-86.4-195.2-195.2v-41.6h-147.2c-38.4 0-70.4-32-70.4-70.4v-518.4c0-38.4 32-70.4 70.4-70.4h694.4c38.4 0 70.4 32 70.4 70.4v518.4c-3.2 38.4-35.2 70.4-73.6 70.4zM332.8 483.2c9.6 0 19.2 9.6 19.2 19.2v118.4h313.6v-118.4c0-9.6 9.6-19.2 19.2-19.2v0c9.6 0 19.2 9.6 19.2 19.2v0 118.4h153.6c19.2 0 32-12.8 32-32v-518.4c0-19.2-12.8-32-32-32h-691.2c-19.2 0-32 12.8-32 32v518.4c0 19.2 12.8 32 32 32h147.2v-118.4c0-9.6 6.4-19.2 19.2-19.2 0 0 0 0 0 0zM352 659.2v41.6c0 86.4 70.4 156.8 156.8 156.8s156.8-70.4 156.8-156.8v-41.6h-313.6z" />
<glyph unicode="&#xe942;" glyph-name="navigation" d="M716.8 467.2h-409.6c-9.6 0-19.2-9.6-19.2-19.2s9.6-19.2 19.2-19.2h412.8c9.6 0 19.2 9.6 19.2 19.2-3.2 9.6-12.8 19.2-22.4 19.2zM716.8 611.2h-409.6c-9.6 0-19.2-9.6-19.2-19.2s9.6-19.2 19.2-19.2h412.8c9.6 0 19.2 9.6 19.2 19.2-3.2 9.6-12.8 19.2-22.4 19.2zM716.8 323.2h-409.6c-9.6 0-19.2-9.6-19.2-19.2s9.6-19.2 19.2-19.2h412.8c9.6 0 19.2 9.6 19.2 19.2-3.2 9.6-12.8 19.2-22.4 19.2z" />
<glyph unicode="&#xe943;" glyph-name="home" d="M921.6 512l-374.4 297.6-19.2 16c-6.4 6.4-19.2 6.4-25.6 0l-108.8-89.6v41.6c0 12.8-9.6 22.4-22.4 22.4h-80c-12.8 0-22.4-9.6-22.4-22.4v-137.6l-163.2-131.2c-9.6-6.4-12.8-19.2-3.2-28.8 0 0 0 0 0 0 3.2-6.4 9.6-6.4 16-6.4s9.6 0 12.8 3.2l64 51.2v-441.6c0-12.8 9.6-22.4 22.4-19.2h227.2c12.8 0 22.4 9.6 22.4 19.2 0 0 0 0 0 0v160h99.2v-160c0-12.8 9.6-22.4 22.4-22.4 0 0 0 0 0 0h227.2c12.8 0 22.4 9.6 22.4 19.2v448l64-51.2c3.2-3.2 9.6-3.2 12.8-3.2 6.4 0 12.8 3.2 16 6.4 0 9.6 0 22.4-9.6 28.8 0 0 0 0 0 0zM310.4 755.2h38.4v-48l-38.4-32v80zM787.2 560v-451.2h-182.4v160c0 12.8-9.6 22.4-22.4 19.2h-140.8c-12.8 0-22.4-9.6-22.4-19.2v-160h-182.4v451.2l83.2 67.2c0 0 192 153.6 192 156.8l275.2-224z" />
<glyph unicode="&#xe944;" glyph-name="filter" d="M80 704h528c12.8-60.8 70.4-99.2 131.2-89.6 44.8 9.6 80 44.8 89.6 89.6h112c9.6 0 16 6.4 16 16s-6.4 16-16 16h-108.8c-6.4 60.8-64 105.6-124.8 96-51.2-6.4-89.6-44.8-96-96h-531.2c-9.6 0-16-6.4-16-16 3.2-9.6 9.6-16 16-16zM720 800c44.8 0 80-35.2 80-76.8s-35.2-76.8-76.8-76.8c-41.6 0-76.8 35.2-76.8 76.8 0 0 0 0 0 0-3.2 41.6 32 76.8 73.6 76.8v0zM944 473.6h-454.4c-6.4 57.6-54.4 99.2-112 99.2s-105.6-41.6-108.8-99.2h-188.8c-9.6 0-16-6.4-16-16s6.4-16 16-16v0h188.8c12.8-60.8 70.4-99.2 131.2-89.6 44.8 9.6 80 44.8 89.6 89.6h454.4c9.6 0 16 6.4 16 16-3.2 9.6-9.6 16-16 16 0 0 0 0 0 0zM380.8 387.2c-41.6 0-76.8 35.2-76.8 76.8s35.2 76.8 76.8 76.8 76.8-35.2 76.8-76.8c0 0 0 0 0 0 0-41.6-35.2-76.8-76.8-76.8 0 0 0 0 0 0zM944 217.6h-227.2c-6.4 60.8-64 105.6-124.8 96-51.2-6.4-89.6-44.8-96-96h-416c-9.6 0-16-6.4-16-16s6.4-16 16-16v0h416c6.4-54.4 57.6-96 112-92.8 54.4-3.2 102.4 35.2 108.8 89.6h227.2c9.6 0 16 6.4 16 16 0 12.8-6.4 19.2-16 19.2v0zM608 128c-41.6 0-76.8 35.2-76.8 76.8s35.2 76.8 76.8 76.8c41.6 0 76.8-35.2 76.8-76.8 0 0 0 0 0 0 0-41.6-35.2-76.8-76.8-76.8z" />
<glyph unicode="&#xe945;" glyph-name="group" d="M960 182.4h-236.8v60.8c0 6.4 0 16 0 22.4 0 0 0 3.2 0 3.2 0 6.4-3.2 12.8-3.2 19.2 0 3.2 0 3.2-3.2 6.4 0 6.4-3.2 9.6-3.2 16 0 3.2-3.2 6.4-3.2 9.6s-3.2 6.4-3.2 9.6c0 0 0 3.2-3.2 3.2 28.8 28.8 67.2 48 108.8 48 83.2 0 150.4-67.2 150.4-147.2v-51.2zM329.6 243.2c0 9.6 0 16 3.2 25.6 0 0 0 3.2 0 3.2 0 6.4 3.2 12.8 3.2 19.2 0 3.2 0 3.2 3.2 6.4 3.2 6.4 3.2 12.8 6.4 16 0 3.2 3.2 3.2 3.2 6.4 16 35.2 41.6 64 76.8 83.2 86.4 48 195.2 12.8 243.2-73.6 12.8-25.6 22.4-54.4 22.4-83.2v-60.8h-361.6v57.6zM64 230.4c0 38.4 16 76.8 44.8 105.6 57.6 57.6 153.6 57.6 211.2 0 0-3.2-3.2-3.2-3.2-6.4s-3.2-6.4-3.2-9.6c0-3.2-3.2-6.4-3.2-9.6s-3.2-6.4-3.2-12.8c0-3.2-3.2-6.4-3.2-9.6s-3.2-9.6-3.2-12.8c0-3.2 0-6.4 0-9.6 0-6.4 0-16 0-22.4v-60.8h-233.6l-3.2 48zM115.2 512c0 54.4 44.8 99.2 99.2 99.2s99.2-44.8 99.2-99.2v0c0-54.4-44.8-99.2-99.2-99.2s-99.2 44.8-99.2 99.2v0zM390.4 572.8c0 67.2 54.4 118.4 118.4 118.4s118.4-54.4 118.4-118.4v0c0-64-54.4-118.4-118.4-118.4 0 0 0 0 0 0s0 0 0 0c-67.2 0-118.4 54.4-118.4 118.4v0zM713.6 508.8c0 54.4 41.6 99.2 96 99.2v0c54.4 0 99.2-44.8 99.2-99.2s-44.8-99.2-96-99.2c-54.4 3.2-99.2 44.8-99.2 99.2v0zM924.8 371.2c-12.8 12.8-28.8 19.2-44.8 25.6 38.4 22.4 64 64 64 112 0 73.6-57.6 131.2-131.2 131.2s-131.2-57.6-131.2-131.2c0-48 25.6-89.6 64-112-22.4-9.6-41.6-22.4-57.6-38.4-25.6 35.2-60.8 64-102.4 80 44.8 25.6 76.8 76.8 76.8 131.2v0c0 83.2-67.2 153.6-153.6 150.4-83.2 0-150.4-67.2-150.4-153.6 0-57.6 32-105.6 76.8-131.2-38.4-16-73.6-41.6-99.2-76.8-16 16-35.2 25.6-54.4 35.2 38.4 22.4 64 64 64 112v0c0 73.6-57.6 131.2-131.2 131.2-73.6 6.4-131.2-54.4-131.2-124.8 0-48 25.6-89.6 64-112-67.2-28.8-115.2-92.8-115.2-169.6v-64c0-9.6 6.4-16 16-16h928c9.6 0 16 6.4 16 16v64c0 54.4-25.6 105.6-67.2 140.8v0z" />
<glyph unicode="&#xe946;" glyph-name="info" d="M457.6 550.4c-9.6 0-19.2-9.6-19.2-22.4 0-9.6 9.6-19.2 22.4-19.2h32v-224h-32c-9.6 0-19.2-9.6-19.2-22.4 0-9.6 9.6-19.2 22.4-19.2h102.4c9.6 0 19.2 9.6 19.2 19.2s-9.6 19.2-19.2 19.2h-32v243.2c0 9.6-9.6 19.2-19.2 19.2h-57.6zM512 652.8c-16 0-32-12.8-32-32s12.8-32 32-32c16 0 32 12.8 32 32s-16 32-32 32v0zM512 41.6c-227.2 0-406.4 182.4-406.4 406.4s179.2 406.4 406.4 406.4c224 0 406.4-182.4 406.4-406.4 0-195.2-137.6-355.2-320-396.8-57.6-12.8-86.4-9.6-86.4-9.6v0zM608 12.8c201.6 44.8 352 220.8 352 435.2 0 246.4-201.6 448-448 448s-448-201.6-448-448 201.6-448 448-448c48 0 96 12.8 96 12.8v0z" />
<glyph unicode="&#xe947;" glyph-name="calendar" d="M176 784h73.6v-67.2c0-12.8 9.6-22.4 22.4-22.4s22.4 9.6 22.4 22.4v67.2h438.4v-67.2c0-12.8 9.6-22.4 22.4-22.4s22.4 9.6 22.4 22.4v67.2h73.6c35.2 0 67.2-28.8 67.2-67.2v-131.2h-809.6v131.2c0 35.2 28.8 67.2 67.2 67.2v0zM880 243.2l-185.6-172.8v128c0 25.6 19.2 44.8 44.8 44.8h140.8zM108.8 112v428.8h806.4v-252.8h-176c-48 0-89.6-38.4-89.6-89.6v-153.6h-473.6c-38.4 0-67.2 28.8-67.2 67.2v0zM64 112c0-60.8 51.2-112 112-112h502.4c6.4 0 9.6 3.2 16 6.4l262.4 243.2c3.2 3.2 6.4 9.6 6.4 16v451.2c0 60.8-51.2 112-112 112h-73.6v44.8c0 12.8-9.6 22.4-22.4 22.4s-22.4-9.6-22.4-22.4v-44.8h-438.4v44.8c0 12.8-12.8 22.4-22.4 22.4-12.8 0-22.4-9.6-22.4-22.4v-44.8h-73.6c-60.8 0-112-51.2-112-112v-604.8z" />
<glyph unicode="&#xe948;" glyph-name="businesssetings" d="M713.6 643.2c9.6 0 16 6.4 16 16s-6.4 16-16 16c-9.6 0-16-6.4-16-16 3.2-9.6 9.6-16 16-16zM553.6 524.8c9.6 0 16 6.4 16 16s-6.4 16-16 16c-9.6 0-16-6.4-16-16 0-6.4 6.4-16 16-16zM419.2 585.6c9.6 0 16 6.4 16 16s-6.4 16-16 16c-9.6 0-16-6.4-16-16s6.4-16 16-16zM284.8 483.2c9.6 0 16 6.4 16 16s-6.4 16-16 16-16-6.4-16-16c3.2-9.6 9.6-16 16-16zM713.6 704c25.6 0 44.8-19.2 44.8-44.8s-19.2-44.8-44.8-44.8c-9.6 0-19.2 3.2-25.6 6.4l-96-70.4c0-3.2 3.2-9.6 3.2-12.8 0-25.6-19.2-44.8-44.8-44.8s-44.8 19.2-44.8 44.8c0 0 0 3.2 0 3.2l-57.6 25.6c-16-16-38.4-19.2-54.4-6.4l-67.2-48c6.4-22.4-3.2-44.8-22.4-54.4s-44.8-6.4-57.6 12.8c-12.8 19.2-12.8 41.6 3.2 60.8 16 16 41.6 19.2 57.6 6.4l67.2 51.2c0 3.2-3.2 9.6-3.2 12.8 0 25.6 19.2 44.8 44.8 44.8s44.8-19.2 44.8-44.8c0 0 0-3.2 0-3.2l57.6-25.6c16 16 38.4 19.2 57.6 6.4l96 70.4c0 3.2-3.2 9.6-3.2 12.8 0 22.4 22.4 41.6 44.8 41.6zM921.6 291.2v531.2c0 25.6-19.2 44.8-44.8 44.8h-739.2c-25.6 0-44.8-19.2-44.8-44.8v-531.2c0-25.6 19.2-44.8 44.8-44.8h739.2c25.6 0 44.8 19.2 44.8 44.8zM419.2 156.8h176v57.6h-176v-57.6zM668.8 128h-323.2c-25.6 0-44.8-19.2-44.8-44.8v-44.8h412.8v44.8c0 22.4-19.2 44.8-44.8 44.8zM876.8 896c41.6 0 73.6-32 73.6-73.6v-531.2c0-41.6-32-73.6-73.6-73.6h-252.8v-57.6h44.8c41.6 0 73.6-32 73.6-73.6v-44.8h73.6v-28.8h-617.6v28.8h73.6v44.8c0 41.6 32 73.6 73.6 73.6h44.8v57.6h-252.8c-41.6 0-73.6 32-73.6 73.6v531.2c0 41.6 32 73.6 73.6 73.6h739.2z" />
<glyph unicode="&#xe949;" glyph-name="businessportal" d="M924.8 422.4v51.2c0 28.8-22.4 51.2-51.2 54.4-6.4 0-12.8 6.4-16 12.8-6.4 28.8-19.2 57.6-35.2 86.4-3.2 6.4-3.2 16 3.2 19.2 19.2 22.4 16 54.4-3.2 73.6l-35.2 35.2c-19.2 19.2-54.4 22.4-73.6 3.2-6.4-6.4-12.8-6.4-19.2-3.2-25.6 16-54.4 28.8-86.4 35.2-6.4 3.2-12.8 9.6-12.8 16-3.2 28.8-25.6 51.2-54.4 51.2h-51.2c-28.8 0-51.2-22.4-54.4-51.2 0-6.4-6.4-12.8-12.8-16-28.8-6.4-57.6-19.2-86.4-35.2-9.6 0-16 0-22.4 6.4-22.4 16-54.4 16-76.8-3.2l-35.2-35.2c-19.2-22.4-19.2-54.4-3.2-76.8 6.4-6.4 6.4-12.8 3.2-19.2-16-25.6-25.6-54.4-35.2-86.4-3.2-6.4-9.6-12.8-16-12.8-28.8-3.2-51.2-25.6-51.2-54.4v-51.2c0-28.8 22.4-51.2 51.2-54.4 6.4 0 12.8-6.4 16-12.8 6.4-28.8 19.2-57.6 35.2-86.4 3.2-6.4 3.2-16-3.2-19.2-19.2-22.4-16-54.4 3.2-73.6l35.2-35.2c19.2-19.2 54.4-22.4 73.6-3.2 3.2 3.2 6.4 3.2 12.8 3.2 3.2 0 6.4 0 9.6-3.2 25.6-16 54.4-28.8 86.4-35.2 6.4-3.2 12.8-9.6 12.8-16 3.2-28.8 25.6-51.2 54.4-51.2h51.2c28.8 0 51.2 22.4 54.4 51.2 0 6.4 6.4 12.8 12.8 16 28.8 6.4 57.6 19.2 86.4 35.2 6.4 3.2 16 3.2 19.2-3.2 22.4-19.2 54.4-16 73.6 3.2l35.2 35.2c19.2 19.2 22.4 54.4 3.2 73.6-6.4 6.4-6.4 12.8-3.2 19.2 16 25.6 28.8 54.4 35.2 86.4 3.2 6.4 9.6 12.8 16 12.8 32 6.4 54.4 28.8 54.4 57.6zM886.4 563.2c41.6-9.6 70.4-44.8 70.4-89.6v-51.2c0-41.6-28.8-80-70.4-89.6-6.4-25.6-16-48-28.8-73.6 22.4-35.2 19.2-83.2-12.8-112l-35.2-35.2c-28.8-28.8-76.8-35.2-112-12.8-22.4-12.8-48-22.4-73.6-28.8-6.4-38.4-44.8-70.4-86.4-70.4h-51.2c-41.6 0-80 28.8-89.6 70.4-25.6 6.4-48 16-73.6 28.8-35.2-22.4-83.2-19.2-112 12.8l-35.2 35.2c-28.8 28.8-35.2 76.8-12.8 112-12.8 22.4-22.4 48-28.8 73.6-41.6 9.6-70.4 48-70.4 89.6v51.2c0 41.6 28.8 80 70.4 89.6 6.4 25.6 16 48 28.8 73.6-19.2 32-16 80 12.8 112l35.2 35.2c28.8 28.8 76.8 35.2 112 12.8 22.4 12.8 48 22.4 73.6 28.8 9.6 41.6 48 70.4 89.6 70.4h51.2c41.6 0 80-28.8 89.6-70.4 25.6-6.4 48-16 73.6-28.8 35.2 22.4 83.2 19.2 112-12.8l35.2-35.2c28.8-28.8 35.2-76.8 12.8-112 9.6-25.6 19.2-51.2 25.6-73.6zM512 166.4c153.6 0 281.6 124.8 281.6 281.6 0 153.6-124.8 281.6-281.6 281.6-153.6 0-281.6-124.8-281.6-281.6 0-153.6 124.8-281.6 281.6-281.6zM512 764.8c176 0 316.8-140.8 316.8-316.8s-140.8-316.8-316.8-316.8c-176 0-316.8 140.8-316.8 316.8s140.8 316.8 316.8 316.8zM521.6 320c28.8 3.2 44.8 22.4 44.8 51.2 0 32-19.2 48-44.8 57.6v-108.8zM502.4 473.6v92.8c-25.6-3.2-48-12.8-48-41.6s19.2-41.6 48-51.2zM521.6 467.2c38.4-12.8 76.8-32 76.8-92.8 0-54.4-32-83.2-76.8-89.6v-16c0-6.4-6.4-9.6-12.8-9.6s-12.8 3.2-12.8 9.6v16c-54.4 0-89.6 32-89.6 51.2 0 9.6 6.4 19.2 16 19.2 12.8 0 22.4-32 73.6-35.2v118.4c-38.4 12.8-80 28.8-80 83.2s41.6 73.6 80 76.8v16c0 3.2 3.2 9.6 12.8 9.6 6.4 0 12.8-3.2 12.8-9.6v-12.8c32 0 70.4-12.8 70.4-28.8 0-6.4-6.4-19.2-16-19.2s-22.4 16-54.4 16v-102.4z" />
<glyph unicode="&#xe94a;" glyph-name="like" d="M883.52 587.84c-14.669 3.732-31.509 5.873-48.849 5.873-2.402 0-4.795-0.041-7.177-0.123l0.346 0.009c-40.64 0-82.24-3.2-122.24-5.12h-22.72l13.44 43.84 3.2 10.88c6.72 22.080 13.76 44.16 20.16 66.56 5.028 13.914 7.934 29.971 7.934 46.707 0 57.355-34.139 106.736-83.204 128.933l-0.89 0.36c-13.737 6.207-29.755 9.947-46.613 10.239l-0.107 0.001c-34.24 0-54.4-23.68-59.84-70.080 0-2.56 0-5.12 0-8 0.081-0.768 0.127-1.658 0.127-2.56s-0.046-1.792-0.136-2.67l0.009 0.11c-1.853-53.715-21.343-102.546-52.821-141.233l0.341 0.433-25.28-25.92c-14.72-15.040-30.4-32-44.48-47.68l-6.080-7.36c-24.352-33.63-55.144-61.050-90.744-80.876l-1.416-0.724c-5.76 27.52-24 40.64-57.28 41.28-45.12 0-90.88 0-136 0-2.056 0.284-4.432 0.446-6.846 0.446-29.161 0-52.8-23.639-52.8-52.8 0-2.414 0.162-4.79 0.476-7.117l-0.030 0.272q0-209.92 0-420.16c0-40 18.56-57.92 59.52-58.24s88.64 0 132.8 0c2.484-0.412 5.346-0.647 8.264-0.647 21.948 0 40.787 13.311 48.885 32.3l0.132 0.347c43.52-6.4 84.48-12.48 126.080-17.6l58.56-7.68c64-8.32 129.92-16.96 195.52-19.2h10.24c111.68 0 186.88 61.12 206.080 168 16.96 93.12 32 190.080 43.52 275.52l6.4 35.84c0.418 3.416 0.657 7.37 0.657 11.38 0 46.902-32.655 86.177-76.47 96.33l-0.667 0.13zM643.84 587.84c-1.024-3.887-1.612-8.348-1.612-12.948 0-0.398 0.004-0.795 0.013-1.191l-0.001 0.059c0.076-0.672 0.119-1.451 0.119-2.24s-0.043-1.568-0.128-2.335l0.008 0.095c-0.026-0.368-0.041-0.798-0.041-1.231 0-5.147 2.095-9.805 5.48-13.168l0.001-0.001c3.503-3.371 8.273-5.448 13.528-5.448 0.194 0 0.388 0.003 0.58 0.008l-0.028-0.001 46.080 2.24c39.68 1.92 80.96 4.16 121.28 5.44 1.192 0.028 2.596 0.044 4.003 0.044 14.813 0 29.213-1.766 43.002-5.098l-1.246 0.254c27.626-7.496 47.61-32.347 47.61-61.866 0-1.991-0.091-3.96-0.269-5.904l0.018 0.25-5.44-36.8c-13.12-89.92-26.56-182.4-43.2-274.24s-79.36-140.16-178.56-137.6c-64 2.24-128 10.56-192 18.88l-58.56 8.96c-41.6 5.12-82.88 11.2-126.080 17.6v389.44c48.647 21.321 88.872 54.149 118.463 95.16l0.577 0.84 6.080 7.36c13.12 15.68 28.16 32 42.56 45.76l1.92 1.92c8 8 16 16.32 23.68 24.64 36.316 43.175 59.23 98.689 61.743 159.469l0.017 0.531v9.28c0 1.92 0 3.84 0 5.76 4.16 37.12 16 37.12 22.4 37.12 11.772-0.857 22.655-3.835 32.547-8.555l-0.547 0.235c36.368-17.203 61.077-53.593 61.077-95.755 0-12.948-2.33-25.352-6.595-36.815l0.238 0.73q-10.56-36.48-21.12-72.96c-5.76-19.52-11.84-37.76-17.6-58.24zM123.84 50.24c-20.48 0-22.080 1.6-22.080 21.12q0 210.24 0 420.16c0 18.56 3.2 22.080 22.080 22.4h134.72c18.24 0 22.4-2.56 22.4-24.64v-418.56c-0.037-0.574-0.058-1.245-0.058-1.92s0.021-1.346 0.062-2.011l-0.005 0.091c0-13.76 0-16.64-24-16.96-44.8-0.32-88.96-0.32-133.12 0.32z" />
<glyph unicode="&#xe94b;" glyph-name="unlike" d="M960 416l-5.12 35.84c-12.48 85.44-26.56 182.4-43.52 275.52-20.16 107.52-95.36 168.64-207.36 168.64h-10.56c-65.6-2.24-131.52-10.88-195.52-19.2l-58.56-7.68c-41.6-5.12-82.56-11.2-126.080-17.6-8.368 19.013-27.043 32.047-48.761 32.047-3.008 0-5.958-0.25-8.829-0.73l0.311 0.043c-44.16 0-88.64 0-132.8 0s-59.2-18.88-59.2-58.24q0-210.24 0-420.16c-0.308-2.142-0.484-4.615-0.484-7.13 0-29.161 23.639-52.8 52.8-52.8 2.314 0 4.593 0.149 6.828 0.437l-0.264-0.028c45.12 0 90.88 0 136 0 32 0 51.52 13.76 57.28 41.28 37.016-20.55 67.808-47.97 91.602-80.792l0.558-0.808 6.080-7.36c14.080-16.96 29.76-32 44.48-47.68l25.28-25.92c30.735-38.264 49.887-86.988 51.511-140.122l0.009-0.358c0.081-0.768 0.127-1.658 0.127-2.56s-0.046-1.792-0.136-2.67l0.009 0.11c0-2.88 0-5.44 0-8 5.44-46.4 25.6-70.080 59.84-70.080 17.104 0.731 33.064 4.902 47.444 11.835l-0.724-0.315c49.956 22.557 84.094 71.938 84.094 129.293 0 16.736-2.907 32.793-8.243 47.694l0.309-0.987c-6.4 22.4-13.44 44.48-20.16 66.56l-3.2 10.88-13.44 43.84h22.72c40-1.92 81.6-4.16 122.24-5.12 2.036-0.072 4.429-0.113 6.831-0.113 17.34 0 34.18 2.142 50.27 6.175l-1.421-0.302c45.036 9.855 78.252 49.401 78.252 96.704 0 3.471-0.179 6.9-0.528 10.279l0.035-0.423zM662.4 249.6q11.52-36.48 22.080-72.96c4.026-10.733 6.357-23.137 6.357-36.085 0-42.162-24.709-78.552-60.435-95.482l-0.641-0.273c-9.345-4.485-20.227-7.463-31.704-8.303l-0.296-0.017c-6.4 0-18.24 0-22.4 37.12 0 1.92 0 3.84 0 5.76v7.36c-2.53 61.311-25.444 116.825-62.092 160.405l0.332-0.405c-7.68 8.32-15.68 16.64-23.68 24.64l-1.92 1.92c-14.4 15.040-29.44 30.080-42.56 45.76l-6.080 7.36c-30.168 41.851-70.393 74.679-117.213 95.283l-1.827 0.717v392.32c43.2 6.4 84.48 12.48 126.080 17.6l58.56 7.68c64 8.32 128 16.64 192 18.88 99.2 2.56 161.92-45.76 178.56-137.6s30.080-184.32 43.2-274.24l5.12-35.52c0.159-1.694 0.25-3.664 0.25-5.654 0-29.519-19.984-54.37-47.162-61.762l-0.449-0.104c-12.543-3.078-26.944-4.844-41.757-4.844-1.408 0-2.812 0.016-4.212 0.048l0.208-0.004c-40.32 0-81.6 3.52-121.28 5.44l-46.080 2.24c-0.164 0.005-0.358 0.008-0.552 0.008-5.255 0-10.025-2.077-13.534-5.454l0.006 0.006c-3.385-3.363-5.481-8.021-5.481-13.169 0-0.433 0.015-0.863 0.044-1.289l-0.003 0.058c0.076-0.672 0.119-1.451 0.119-2.24s-0.043-1.568-0.128-2.335l0.008 0.095c-0.008-0.337-0.012-0.734-0.012-1.132 0-4.599 0.588-9.061 1.693-13.315l-0.081 0.367c4.16-20.48 10.24-38.72 16-58.24zM256 846.080c22.72 0 23.040-3.2 24-16.96v-422.4c0-22.080-4.16-24.32-22.4-24.64h-134.72c-18.88 0-22.080 3.84-22.080 22.4q0 209.6 0 420.16c0 19.52 0 21.12 22.080 21.12 45.12 0.64 89.28 0.64 133.12 0.32z" />
</font>
</defs>
</svg>
