<?xml version="1.0" encoding="UTF-8"?>
<svg width="30px" height="19px" viewBox="0 0 30 19" version="1.1" xmlns="http://www.w3.org/2000/svg" xmlns:xlink="http://www.w3.org/1999/xlink">
    <!-- Generator: Sketch 55.2 (78181) - https://sketchapp.com -->
    <title>icons/outline/group</title>
    <desc>Created with Sketch.</desc>
    <defs>
        <path d="M29.9654,17.2745 L22.5324,17.2745 L22.5324,15.4205 C22.5324,15.1815 22.5184,14.9455 22.4934,14.7115 C22.4884,14.6665 22.4784,14.6215 22.4724,14.5755 C22.4484,14.3885 22.4204,14.2035 22.3814,14.0215 C22.3664,13.9545 22.3464,13.8875 22.3294,13.8205 C22.2904,13.6665 22.2504,13.5125 22.2014,13.3625 C22.1724,13.2715 22.1364,13.1815 22.1034,13.0915 C22.0594,12.9745 22.0144,12.8575 21.9634,12.7435 C21.9444,12.7015 21.9314,12.6565 21.9114,12.6145 C22.7884,11.6765 24.0124,11.1435 25.2944,11.1394709 C27.8654,11.1305 29.9564,13.2105 29.9654,15.7835 L29.9654,17.2745 Z M10.3364,15.4205 C10.3364,15.1675 10.3544,14.9175 10.3884,14.6705 C10.3934,14.6305 10.4044,14.5925 10.4104,14.5545 C10.4434,14.3475 10.4834,14.1425 10.5374,13.9425 C10.5514,13.8915 10.5714,13.8425 10.5874,13.7925 C10.6444,13.6075 10.7044,13.4245 10.7794,13.2485 C10.8044,13.1885 10.8364,13.1315 10.8634,13.0735 C11.3634,11.9965 12.1964,11.0815 13.2804,10.5005 C15.9974,9.0425 19.3804,10.0655 20.8364,12.7855 C21.2754,13.5935 21.5024,14.5015 21.498452,15.4205 L21.498452,17.2745 L10.3364,17.2745 L10.3364,15.4205 Z M2.0344,15.7835 C2.0394,14.5575 2.5274,13.3835 3.3914,12.5145 C5.2044,10.6915 8.1524,10.6845 9.9744,12.5005 C9.9404,12.5715 9.9144,12.6455 9.8834,12.7175 C9.8424,12.8085 9.8044,12.9005 9.7674,12.9945 C9.7224,13.1085 9.6794,13.2235 9.6414,13.3405 C9.6014,13.4595 9.5684,13.5805 9.5354,13.7025 C9.5084,13.8035 9.4794,13.9045 9.4564,14.0075 C9.4254,14.1545 9.4034,14.3025 9.3804,14.4535 C9.3684,14.5375 9.3514,14.6215 9.3424,14.7065 C9.3174,14.9415 9.3024,15.1785 9.3014,15.4205 L9.3014,17.2745 L2.0604,17.2745 L2.0344,15.7835 Z M3.61139782,7.0165 C3.6144,5.3175 4.9924,3.9425 6.6904,3.9454951 C8.3844,3.9485 9.7574,5.3255 9.7574,7.0225 L9.7574,7.0265 C9.7544,8.7255 8.3764,10.1005 6.6794,10.0975049 C4.9834,10.0945 3.6094,8.7155 3.61139782,7.0165 L3.61139782,7.0165 Z M12.1833635,5.0645 C12.1914,3.0085 13.8634,1.3485 15.9174,1.35746358 C17.9634,1.3655 19.6174,3.0265 19.6204,5.0745 L19.6204,5.0955 C19.6114,7.1385 17.9614,8.7875 15.9264,8.8015 C15.9244,8.8015 15.9224,8.8005 15.9204,8.8005 C15.9064,8.8005 15.8944,8.8025 15.8814,8.8025 C13.8294,8.7915 12.1744,7.1195 12.1833635,5.0645 L12.1833635,5.0645 Z M22.2694,7.0525 C22.2514,5.3545 23.6134,3.9625 25.3104,3.9455 L25.3414,3.9455 C27.0384,3.9455 28.4134,5.3235 28.4134,7.0225 C28.4134,8.7085 27.0574,10.0805 25.3724,10.0975 C23.6754,10.1145 22.2864,8.7515 22.2694,7.0525 L22.2694,7.0525 Z M28.8964,11.3785 C28.4524,11.0175 27.9704,10.7365 27.4664,10.5305 C28.6524,9.8105 29.4464,8.5105 29.4484,7.0225 C29.4504,4.7615 27.6304,2.9225 25.3724,2.9055 C23.1044,2.8885 21.2514,4.7145 21.2354,6.9855 C21.2234,8.4775 22.0104,9.7865 23.1924,10.5155 C22.5314,10.7805 21.9154,11.1735 21.3794,11.6885 C20.6134,10.5695 19.5134,9.7045 18.2244,9.2235 C19.6734,8.4075 20.6524,6.8565 20.6544,5.0745 L20.6544,5.0595 C20.6474,2.4315 18.5114,0.3075 15.8864,0.316471504 C13.2614,0.3245 11.1404,2.4625 11.1484,5.0905 C11.1534,6.8725 12.1394,8.4205 13.5894,9.2305 C12.3464,9.6995 11.2814,10.5295 10.5244,11.5965 C10.0214,11.1365 9.4414,10.7785 8.8164,10.5265 C9.9974,9.8055 10.7894,8.5075 10.7914,7.0225 L10.7914,7.0115 C10.7884,4.7405 8.9474,2.9025 6.6794,2.9055 C4.4104,2.9085 2.5744,4.7515 2.5774,7.0225 C2.5794,8.5065 3.3704,9.8035 4.5504,10.5245 C2.4754,11.3695 1.0074,13.4025 0.9994,15.7835 L0.9994,17.7935 C0.9994,18.0785 1.2324,18.3105 1.5174,18.3105 L9.8194,18.3105 L22.0154,18.3105 L30.4834,18.3105 C30.7684,18.3105 30.9994,18.0785 30.9994,17.7935 L30.9994,15.7835 C30.9944,14.0735 30.2224,12.4565 28.8964,11.3785 L28.8964,11.3785 Z" id="path-1"></path>
    </defs>
    <g id="Mobil-Nuevos-Productos" stroke="none" stroke-width="1" fill="none" fill-rule="evenodd">
        <g id="Evaluación-Completa-P5" transform="translate(-324.000000, -81.000000)">
            <g id="Group">
                <g id="Group-Copy-3" transform="translate(0.000000, 74.000000)">
                    <g id="icons/outline/group" transform="translate(323.000000, 0.000000)">
                        <g id="Group">
                            <g id="colors/brand-secondary" transform="translate(0.000000, 7.000000)">
                                <mask id="mask-2" fill="white">
                                    <use xlink:href="#path-1"></use>
                                </mask>
                                <use id="Mask" fill="#000000" xlink:href="#path-1"></use>
                                <g id="colors/brand-primary" mask="url(#mask-2)" fill="#FF6900" fill-rule="nonzero">
                                    <g transform="translate(0.000000, -6.000000)" id="Rectangle-2-Copy">
                                        <rect x="0" y="0" width="32.0000009" height="32.0000009"></rect>
                                    </g>
                                </g>
                            </g>
                        </g>
                    </g>
                </g>
            </g>
        </g>
    </g>
</svg>