<?xml version="1.0" encoding="UTF-8"?>
<svg width="32px" height="32px" viewBox="0 0 32 32" version="1.1" xmlns="http://www.w3.org/2000/svg" xmlns:xlink="http://www.w3.org/1999/xlink" style="background: #FFFFFF;">
    <!-- Generator: sketchtool 55.2 (78181) - https://sketchapp.com -->
    <title>86C6B7A9-7C37-4092-912D-3410F7F51A6A</title>
    <desc>Created with sketchtool.</desc>
    <defs>
        <path d="M21.6016,8.8283 L21.6016,22.9503 L15.8636,22.9503 L15.8636,17.9123 C15.8636,17.5543 15.5676,17.2633 15.2026,17.2633 L10.7976,17.2633 C10.4326,17.2633 10.1376,17.5543 10.1376,17.9123 L10.1376,22.9503 L4.3986,22.9503 L4.3986,8.8283 L6.9666,6.7323 C6.9666,6.7323 12.9816,1.8903 13.0196,1.8253 L21.6016,8.8283 Z M6.6876,2.7033 L7.8846,2.7033 L7.8846,4.2503 L6.6876,5.2033 L6.6876,2.7033 Z M25.7546,10.2693 L14.0706,0.9953 L13.4216,0.4663 C13.1776,0.2663 12.8226,0.2663 12.5786,0.4663 L9.2056,3.2173 L9.2056,2.0543 C9.2056,1.6953 8.9106,1.4053 8.5456,1.4053 L6.0276,1.4053 C5.6626,1.4053 5.3666,1.6953 5.3666,2.0543 L5.3666,6.3393 L0.2436,10.4473 C-0.0404,10.6733 -0.0824,11.0823 0.1486,11.3603 C0.2796,11.5173 0.4696,11.5993 0.6616,11.5993 C0.8076,11.5993 0.9556,11.5513 1.0786,11.4533 L3.0776,9.8503 L3.0776,23.5983 C3.0776,23.9573 3.3726,24.2473 3.7376,24.2473 L10.7976,24.2473 C11.1636,24.2473 11.4586,23.9573 11.4586,23.5983 L11.4586,18.5623 L14.5406,18.5623 L14.5406,23.5983 C14.5406,23.9573 14.8366,24.2473 15.2026,24.2473 L22.2616,24.2473 C22.6266,24.2473 22.9226,23.9573 22.9226,23.5983 L22.9226,9.6913 L24.9236,11.2793 C25.0456,11.3763 25.1936,11.4233 25.3386,11.4233 C25.5316,11.4233 25.7226,11.3413 25.8536,11.1823 C26.0826,10.9033 26.0386,10.4943 25.7546,10.2693 L25.7546,10.2693 Z" id="path-1"></path>
    </defs>
    <g id="Dsk-Nuevos-Productos" stroke="none" stroke-width="1" fill="none" fill-rule="evenodd">
        <g id="Pendientes" transform="translate(-1255.000000, -17.000000)">
            <g id="topbar">
                <g id="icons/outline/direction-copy" transform="translate(1255.000000, 17.000000)">
                    <g id="Group" transform="translate(0.000000, -0.316100)">
                        <g id="colors/brand-secondary" transform="translate(3.000000, 4.000000)">
                            <g>
                                <mask id="mask-2" fill="white">
                                    <use xlink:href="#path-1"></use>
                                </mask>
                                <use id="Mask" fill="#000000" xlink:href="#path-1"></use>
                                <g mask="url(#mask-2)" fill="#FFFFFF" fill-rule="nonzero" id="Rectangle-2-Copy-2">
                                    <g transform="translate(-3.000000, -3.000000)">
                                        <rect x="0" y="0" width="32" height="32"></rect>
                                    </g>
                                </g>
                            </g>
                        </g>
                    </g>
                </g>
            </g>
        </g>
    </g>
</svg>