<?xml version="1.0" encoding="UTF-8"?>
<svg width="17px" height="15px" viewBox="0 0 17 15" version="1.1" xmlns="http://www.w3.org/2000/svg" xmlns:xlink="http://www.w3.org/1999/xlink">
    <!-- Generator: Sketch 55.2 (78181) - https://sketchapp.com -->
    <title>warning</title>
    <desc>Created with Sketch.</desc>
    <g id="Mobil-Nuevos-Productos" stroke="none" stroke-width="1" fill="none" fill-rule="evenodd">
        <g id="Vencido-P5" transform="translate(-313.000000, -205.000000)" fill="#F92D2D" fill-rule="nonzero">
            <g id="warning" transform="translate(313.000000, 205.000000)">
                <path d="M8.21817343,5.04254613 C7.92924354,5.04254613 7.73656827,5.23516605 7.73656827,5.52415129 L7.73656827,8.99153137 C7.73656827,9.28046125 7.92918819,9.47313653 8.21817343,9.47313653 C8.50710332,9.47313653 8.6997786,9.28051661 8.6997786,8.99153137 L8.6997786,5.52415129 C8.6997786,5.23516605 8.50710332,5.04254613 8.21817343,5.04254613 Z" id="Path"></path>
                <path d="M8.50710332,11.1105166 C8.31448339,10.9178967 8.02549815,10.9178967 7.83287823,11.1105166 C7.73656827,11.2068266 7.73656827,11.3994465 7.73656827,11.4957565 C7.73656827,11.6883764 7.73656827,11.7846863 7.83287823,11.8809963 C7.92918819,11.9773063 8.12180812,11.9773063 8.21811808,11.9773063 C8.31442804,11.9773063 8.50704797,11.9773063 8.41073801,11.8809963 C8.50704797,11.7846863 8.60336507,11.5920664 8.60336507,11.4957565 C8.60346863,11.3031365 8.60346863,11.2068266 8.50710332,11.1105166 L8.50710332,11.1105166 Z" id="Path"></path>
                <path d="M16.0198339,11.2068266 L10.3371587,1.28623616 C9.95191882,0.515701107 9.0850738,0.0341512915 8.21817343,0.0341512915 C7.35132841,0.0341512915 6.58079336,0.515756458 6.09918819,1.28623616 L0.416512915,11.2068266 C-0.0650922509,11.9773616 -0.0650922509,12.9405166 0.416512915,13.7110517 C0.801752768,14.4815867 1.66859779,14.9631365 2.53549815,14.9631365 L13.9008487,14.9631365 C14.8640037,14.9631365 15.6345387,14.4815314 16.0198339,13.7110517 C16.5014391,12.9405166 16.5014391,11.9773616 16.0198339,11.2068266 Z M15.2492989,13.3258118 C15.056679,13.807417 14.5750738,14.0963469 13.997214,14.0963469 L2.53549815,14.0963469 C2.05389299,14.0963469 1.57234317,13.807417 1.28341328,13.3258118 C0.994483395,12.8442066 0.994483395,12.2663469 1.28341328,11.7847417 L6.96608856,1.86409594 C7.15870849,1.38249077 7.64031365,1.09356089 8.21817343,1.09356089 C8.79608856,1.09356089 9.27763838,1.38249077 9.56662362,1.86409594 L15.2492989,11.7846863 C15.5382841,12.2662915 15.5382841,12.8442066 15.2492989,13.3258118 Z" id="Shape"></path>
            </g>
        </g>
    </g>
</svg>