<?xml version="1.0" encoding="utf-8"?>
<!-- Generator: Adobe Illustrator 22.1.0, SVG Export Plug-In . SVG Version: 6.00 Build 0)  -->
<svg version="1.1" id="Capa_1" xmlns="http://www.w3.org/2000/svg" xmlns:xlink="http://www.w3.org/1999/xlink" x="0px" y="0px"
	 viewBox="0 0 185 38" style="enable-background:new 0 0 185 38;" xml:space="preserve">
<style type="text/css">
	.st0{fill:#FFFFFF;}
</style>
<g>
	<g>
		<g transform="translate(8.8e-5 .29664)">
			<path class="st0" d="M24.6,10.7L24.6,10.7l3.3-3.3h0L35.3,0c-4.9,1.1-9.6,3.6-13.5,7.4H1.9C0.9,7.5,0,8.3,0,9.4v24.2
				c0,1.1,0.9,1.9,1.9,1.9h24c1.1,0,1.9-0.9,1.9-1.9v-20l-3.3,3.3v15.3H3.3V10.7h15.6c-2.4,3.3-4.1,6.9-5,10.7L24.6,10.7L24.6,10.7z
				"/>
			<polygon class="st0" points="89.2,14 89.2,31.6 78.8,14 75.2,14 75.2,35.5 78,35.5 78,17.9 88.4,35.5 92,35.5 92,14 			"/>
			<path class="st0" d="M62.4,13.9v14.2c0,2.9-2.3,5.3-5.2,5.3c-2.9,0-5.2-2.4-5.2-5.3V13.9h-2.7v14.2c0,4.4,3.6,8,8,8
				c4.4,0,8-3.6,8-8V13.9L62.4,13.9L62.4,13.9z"/>
			<path class="st0" d="M160.4,13.9v14.2c0,2.9-2.3,5.3-5.2,5.3c-2.9,0-5.2-2.4-5.2-5.3V13.9h-2.7v14.2c0,4.4,3.6,8,8,8
				c4.4,0,8-3.6,8-8V13.9L160.4,13.9L160.4,13.9z"/>
			<polygon class="st0" points="103.1,35.5 105.9,35.5 105.9,13.9 103.1,13.9 			"/>
			<polygon class="st0" points="184.9,16.7 184.9,13.9 173.2,13.9 173.2,35.5 184.9,35.5 184.9,32.7 176,32.7 176,25.8 184.6,25.8 
				184.6,23.1 176,23.1 176,16.7 			"/>
			<path class="st0" d="M126.7,16.1c4.7,0,8.6,3.9,8.6,8.7c0,4.8-3.9,8.7-8.6,8.7c-4.7,0-8.6-3.9-8.6-8.7
				C118.1,20,121.9,16.1,126.7,16.1z M134.5,33c2.3-2.2,3.5-5.1,3.5-8.3c0-6.3-5.1-11.4-11.3-11.4c-6.3,0-11.3,5.1-11.3,11.4
				c0,6.3,5.1,11.4,11.3,11.4c1.9,0,3.7-0.5,5.4-1.4l4.7,2.8l1.4-2.4L134.5,33L134.5,33z"/>
		</g>
	</g>
</g>
</svg>
