<?xml version="1.0" encoding="utf-8"?>
<!-- Generator: Adobe Illustrator 22.1.0, SVG Export Plug-In . SVG Version: 6.00 Build 0)  -->
<svg version="1.1" id="Capa_1" xmlns="http://www.w3.org/2000/svg" xmlns:xlink="http://www.w3.org/1999/xlink" x="0px" y="0px"
	 viewBox="0 0 187 37" style="enable-background:new 0 0 187 37;" xml:space="preserve">
<style type="text/css">
	.st0{fill:#FFFFFF;}
</style>
<g>
	<g>
		<path class="st0" d="M132.9,23h-4.1v-6.2l4.1,0c1.6,0,2.9,1.4,2.9,3.1C135.8,21.6,134.5,23,132.9,23L132.9,23z M128.8,25.8h4.9
			c2,0,3.6,1.7,3.6,3.7c0,2.1-1.6,3.7-3.5,3.7h-4.9L128.8,25.8L128.8,25.8z M136.9,24c1-1.1,1.5-2.5,1.5-4c0-3.2-2.5-5.8-5.6-5.8
			h-6.7V36l7.5,0c3.4,0,6.2-2.9,6.2-6.5C139.9,27.2,138.8,25.1,136.9,24L136.9,24z"/>
		<polygon class="st0" points="63.7,14 57,23.7 50.4,14 47,14 55.6,26.5 55.6,36 58.4,36 58.4,26.5 67,14 		"/>
		<path class="st0" d="M25,10.9L25,10.9l3.3-3.3h0l7.5-7.4c-5,1.1-9.8,3.6-13.7,7.4H1.9C0.9,7.6,0,8.5,0,9.5v24.1
			c0,1.1,0.9,1.9,1.9,1.9h24.4c1.1,0,1.9-0.9,1.9-1.9V13.7L25,17v15.3H3.3V10.9h15.9c-2.5,3.3-4.1,6.9-5,10.7L25,10.9L25,10.9z"/>
		<polygon class="st0" points="178.6,33.2 178.6,14 176,14 176,36 187,36 187,33.2 		"/>
		<polygon class="st0" points="112.2,14 112.2,32 101.6,14 98,14 98,36 100.8,36 100.8,18 111.4,36 115,36 115,14 		"/>
		<polygon class="st0" points="158.7,14.5 158.5,14 155.5,14 147,36 149.9,36 157,17.7 163.9,35.5 164.1,36 167,36 		"/>
		<polygon class="st0" points="80.7,14.5 80.5,14.1 77.5,14.1 69.1,36 72,36 79,17.8 86,36 89,36 		"/>
	</g>
</g>
</svg>
